<svg xmlns="http://www.w3.org/2000/svg" width="44.058" height="44.235" viewBox="0 0 44.058 44.235"><defs><style>.a{opacity:0.4;}.b{fill:#1a1818;fill-rule:evenodd;}</style></defs><g class="a"><path class="b" d="M503.238,335.835a22.118,22.118,0,1,0,22.029,22.117,22.073,22.073,0,0,0-22.029-22.117ZM492.418,364.36v-1.831h0a4.448,4.448,0,0,1-3.539,1.749,6.692,6.692,0,0,1,0-13.385,6.848,6.848,0,0,1,6.884,6.669h0l0,6.774-3.348.024Zm10.986.105a6.848,6.848,0,0,1-6.884-6.669h0l0-11.26h3.344l0,6.294h0a4.449,4.449,0,0,1,3.539-1.749,6.692,6.692,0,0,1,0,13.385Zm14.333-.157a6.692,6.692,0,0,1,0-13.384,6.75,6.75,0,0,1,6.535,5.393h0l-3.352-.011h0a3.376,3.376,0,1,0,.015,2.717h0l3.352-.016h0a6.658,6.658,0,0,1-6.55,5.3Z" transform="translate(-481.209 -335.835)"/><path class="b" d="M563.79,413.5a3.4,3.4,0,1,0,3.383,3.4,3.39,3.39,0,0,0-3.383-3.4Z" transform="translate(-541.681 -395.135)"/><path class="b" d="M502.9,413.5a3.4,3.4,0,1,0,3.383,3.4,3.39,3.39,0,0,0-3.383-3.4Z" transform="translate(-495.187 -395.135)"/></g></svg>