<svg xmlns="http://www.w3.org/2000/svg" xmlns:xlink="http://www.w3.org/1999/xlink" width="155.319" height="38.251" viewBox="0 0 155.319 38.251"><defs><style>.a{fill:none;}.b{fill:#fff;}.c{fill:#ffc60b;}.d{fill:#231f20;font-size:1px;font-family:OmnesMedium, Omnes;}.e{clip-path:url(#a);}.f{clip-path:url(#b);}</style><clipPath id="a"><rect class="a" width="152.171" height="38.02"/></clipPath><clipPath id="b"><rect class="a" width="152.156" height="37.986"/></clipPath></defs><g transform="translate(0.01 -0.001)"><path d="M212.31,70c2.583-.83,3.944-2.574,3.944-5.065,0-3.833-2.67-5.938-7.523-5.938h-7.2a1.148,1.148,0,0,0-1.15,1.22V80.787a1.148,1.148,0,0,0,1.15,1.22h7.453c5.6,0,8.321-2.079,8.321-6.353C217.308,72.671,215.583,70.725,212.31,70Zm2.875,5.579c0,3.186-1.864,4.547-6.235,4.547h-6.512V71.139h6.587C213.169,71.139,215.185,72.594,215.185,75.582Zm-12.75-6.247V60.874h6.3c3.577,0,5.391,1.4,5.391,4.161,0,2.653-2.026,4.3-5.285,4.3Z" transform="translate(-152.875 -49.175)"/><path d="M292.776,83.92h-.212c-.574,0-.866.316-.866.938V95.625a6.038,6.038,0,0,1-5.707,3.765c-3.114,0-4.9-2.106-4.9-5.789V84.858c0-.632-.294-.938-.9-.938h-.21c-.576,0-.868.316-.868.938v8.859c0,4.727,2.52,7.547,6.739,7.547a6.857,6.857,0,0,0,5.883-3.116V99.2c0,1.223.388,1.816,1.184,1.816.258,0,.762-.106.762-.3V84.858C293.678,84.226,293.384,83.92,292.776,83.92Z" transform="translate(-212.615 -68.085)"/><path d="M364.012,99.552H353.665l10.415-12.906c.482-.632.695-.943.695-1.24v-.13c0-.4-.174-.866-1.008-.866h-11.6c-.673,0-.965.241-.965.762v.176c0,.55.3.8.965.8h9.928L351.815,98.9l-.1.128c-.4.519-.6.777-.6,1.146v.241c0,.56.347.868.965.868H364c.449,0,1.044-.08,1.044-.762v-.176C365.056,99.642,364.5,99.552,364.012,99.552Z" transform="translate(-267.256 -68.457)"/><path d="M431.072,99.552H420.725L431.14,86.646c.482-.632.695-.943.695-1.24v-.13c0-.4-.176-.866-1.008-.866h-11.6c-.67,0-.965.241-.965.762v.176c0,.55.3.8.965.8h9.928L418.875,98.911l-.1.128c-.4.519-.6.777-.6,1.146v.241c0,.56.345.868.965.868h11.92c.449,0,1.042-.08,1.042-.762v-.176C432.126,99.642,431.557,99.552,431.072,99.552Z" transform="translate(-318.142 -68.457)"/><path d="M507.068,65.949c0-4.537-2.986-6.949-8.637-6.949h-6.469a2.006,2.006,0,0,0-2.062,2.171V80.153c0,1.286.584,1.992,1.64,1.992h.482a1.606,1.606,0,0,0,1.713-1.782V73.11h2.306l6.184,7.578a2.86,2.86,0,0,0,2.458,1.447,2.448,2.448,0,0,0,2.188-1.242c.094-.2.1-.352.022-.446l-6.486-7.718a8.729,8.729,0,0,0,1.206-.193C505.136,71.8,507.068,69.456,507.068,65.949Zm-3.912.176c0,2.5-1.7,3.878-4.8,3.878h-4.653V62.244h4.549c3.244,0,4.9,1.307,4.9,3.881Z" transform="translate(-372.563 -49.175)"/><path d="M584.75,83.62a2.4,2.4,0,0,0-2.014-1.16,2.683,2.683,0,0,0-2.25,1.5L576.9,89.185l-3.64-5.222a2.6,2.6,0,0,0-2.289-1.5,2.272,2.272,0,0,0-1.908,1.071c-.1.171-.118.3-.058.4l5.461,7.3-5.518,7.236c-.068.065-.072.166-.017.3a2.371,2.371,0,0,0,2,1.223,2.713,2.713,0,0,0,2.287-1.534l3.553-5.157,3.652,5.186a2.572,2.572,0,0,0,2.253,1.505,2.262,2.262,0,0,0,1.93-1.076c.106-.186.13-.328.068-.432l-5.427-7.236,5.533-7.306C584.837,83.861,584.82,83.758,584.75,83.62Z" transform="translate(-432.503 -66.977)"/><path class="b" d="M31.854,41.367h.036c.241.012.482.029.724.055h.055q.345.036.695.094h.019c.241.036.461.082.692.128H34.1c.258.053.519.113.779.178h0l.092.024h0c.47.121.943.26,1.413.42h0l.1.034h0c.241.08.466.164.7.241h0c.241.094.5.2.748.3h.014q.371.157.738.326H38.7a22.956,22.956,0,0,1,2.057,1.076h0q.666.4,1.264.815h0c.2.14.391.282.576.425h0c.159.123.311.241.461.369h0c.147.123.287.241.425.371l.017.017c.118.109.241.217.338.326l.08.082c.111.116.219.241.321.347l.017.019c-.082-.13-.171-.263-.263-.4l-.043-.039c-.089-.125-.178-.253-.275-.379v-.017c-.111-.147-.227-.292-.345-.439h0c-.121-.147-.241-.294-.371-.439h0c-.15-.171-.306-.343-.466-.511h0q-.482-.507-1.006-1h-.014c-.174-.162-.352-.321-.533-.482l-.014-.012c-.359-.311-.724-.61-1.11-.9l-.055-.041c-.183-.137-.369-.273-.557-.4l-.077-.053h0c-.186-.13-.371-.256-.56-.376l-.029-.019c-.183-.118-.369-.241-.555-.345l-.089-.051c-.183-.109-.367-.212-.552-.311l-.046-.024c-.174-.094-.347-.181-.521-.265l-.077-.036c-.178-.084-.355-.164-.531-.241l-.1-.036c-.176-.072-.355-.14-.528-.2H35.5c-.166-.058-.33-.109-.494-.152H34.98l-.068-.019c-.166-.043-.33-.082-.482-.113h-.1l-.241-.036c-.087,0-.176-.024-.26-.031a1.972,1.972,0,0,0-2.127.839h0c-.039.058-.08.121-.121.188s-.075.125-.111.191c-.012.019-.022.041-.031.06s-.055.1-.082.159l-.034.065c-.036.075-.07.154-.106.241A2.344,2.344,0,0,1,31.854,41.367Z" transform="translate(-24.515 -34.48)"/><path class="b" d="M29.678,62.435a8.274,8.274,0,0,0,3.3-2.5,3.9,3.9,0,0,0-.429-.581c-.075-.087-.154-.171-.241-.256l-.121-.121c-.043-.043-.087-.089-.133-.133l-.176-.162-.1-.089c-.07-.063-.145-.125-.219-.188l-.068-.058c-.084-.07-.171-.137-.26-.207l-.041-.034-.3-.224-.019-.014c-.109-.08-.217-.157-.33-.241h0l-.35-.241h0c-.374-.241-.772-.482-1.184-.724h0c-.412-.229-.842-.446-1.281-.651h0c-.437-.205-.883-.4-1.334-.572h-.022c-.449-.174-.9-.33-1.356-.482h-.031c-.449-.137-.9-.26-1.339-.359h-.039c-.441-.1-.873-.176-1.3-.229h-.041a10.285,10.285,0,0,0-1.22-.084h-.039c-.193,0-.384,0-.569.017a3.126,3.126,0,0,0-.4.039h-.014c-.135.017-.268.039-.4.063s-.191.043-.28.068l-.06.019h0l-.2.063h0l-.043.014a2.75,2.75,0,0,0-.412.2h0a1.871,1.871,0,0,0-.169.113h0a1.631,1.631,0,0,0-.263.241h0c-.034.041-.065.084-.1.128h0a1.689,1.689,0,0,0-.145.265h0v.019l-.043.106v.027h0c-.014.041-.029.082-.041.123a5.151,5.151,0,0,0,.847,5,6,6,0,0,0,1.785,1.358A10.268,10.268,0,0,0,29.678,62.435Z" transform="translate(-14.169 -45.594)"/><path d="M39.468,28.095a9.6,9.6,0,0,0-4.559-3.377,6.814,6.814,0,0,1,.9-2.311,5.176,5.176,0,0,1,2.243-2.028.9.9,0,0,0-.63-1.688,6.9,6.9,0,0,0-3.148,2.769,8.594,8.594,0,0,0-1.119,2.827h-.041a9.733,9.733,0,0,0-1.539-.109,8.625,8.625,0,0,0-.9-2.836,6.9,6.9,0,0,0-2.943-2.988A.9.9,0,0,0,26.981,20a5.186,5.186,0,0,1,2.094,2.185,6.8,6.8,0,0,1,.7,2.171,9.648,9.648,0,0,0-3.859,1.708l-2.653,1.959c-2.687-3.136-6.968-6.1-10.393-6.4A3.8,3.8,0,0,0,9.1,23.23h0A7.477,7.477,0,0,0,8.122,25.4a3.69,3.69,0,0,0-2.8,2.537h0A7.221,7.221,0,0,0,6.6,34.662a7.781,7.781,0,0,0,2.318,1.775,13.089,13.089,0,0,0,1.874.8L8.645,38.821A9.715,9.715,0,0,0,5.459,50.362L3.38,54.1l4.182-.617a9.735,9.735,0,0,0,12.61.924l8.635-6.377,8.635-6.377A9.708,9.708,0,0,0,39.468,28.095ZM10.1,25.14c.036-.08.07-.159.106-.241l.034-.065c.027-.055.053-.109.082-.159s.019-.041.031-.06c.036-.065.072-.13.111-.191s.082-.13.121-.188h0a1.965,1.965,0,0,1,2.127-.839,1.965,1.965,0,0,1,.26.031l.241.036h.048c.2.036.4.082.608.14h.024a9.484,9.484,0,0,1,1.047.391h0l.1.043h0c.176.072.352.152.531.241h0l.075.036h0c.371.178.745.381,1.119.6h0l.089.051h0c.386.241.769.482,1.148.743l.029.022h0c.188.13.374.265.557.4h0l.055.039h0c.576.437,1.136.9,1.662,1.392h.014q.528.482,1.006,1h0c.159.169.316.34.466.511h0c.128.145.241.292.371.439h0c.118.147.241.292.345.439v.017c.1.125.188.241.275.379l.065.094c.092.133.181.265.263.4l-.017-.019c-.1-.116-.21-.241-.321-.347l-.08-.082c-.109-.109-.219-.217-.338-.326l-.017-.017c-.137-.123-.277-.241-.425-.371h0c-.15-.123-.3-.241-.461-.369h0c-.186-.142-.379-.285-.576-.425h0c-.393-.275-.81-.545-1.249-.806h-.014c-.217-.128-.439-.253-.663-.376h0c-.446-.241-.909-.482-1.384-.695h-.022l-.027-.031c-.241-.106-.466-.207-.7-.306H16.8l-.01-.017c-.241-.1-.482-.193-.707-.282h-.024c-.241-.087-.463-.171-.7-.241l-.1-.034c-.241-.08-.466-.152-.7-.222l-.051-.014c-.222-.065-.444-.125-.666-.183l-.092-.024c-.224-.058-.449-.109-.671-.157l-.128-.048h-.024c-.224-.046-.449-.089-.671-.125h-.041c-.215-.034-.425-.063-.632-.087h-.118c-.212-.022-.422-.041-.627-.053h-.123c-.215,0-.425-.017-.632-.017h0ZM9.74,34.817a6,6,0,0,1-1.785-1.358,5.358,5.358,0,0,1-.917-4.981,1.33,1.33,0,0,1,.043-.128v-.027h0l.043-.106h0V28.2a1.6,1.6,0,0,1,.15-.273h0a1.659,1.659,0,0,1,.362-.379h0a1.517,1.517,0,0,1,.171-.116h0a2.75,2.75,0,0,1,.412-.2h0l.043-.014.2-.065h0c.106-.031.217-.06.34-.087s.26-.046.4-.063h.014c.13-.017.265-.029.4-.039.014-.174.014-.164,0,0a9.486,9.486,0,0,1,1.828.068h.046a17.767,17.767,0,0,1,4.076,1.083h.022a21.708,21.708,0,0,1,2.631,1.23h0c.412.241.81.466,1.184.724h0c.121.077.241.157.355.241h0c.113.077.222.154.33.241l.019.014.3.224.043.034c.087.07.176.137.26.207l.068.058c.075.063.15.125.219.188l.1.089.176.162c.046.043.089.089.133.133l.121.121.241.256a3.9,3.9,0,0,1,.429.581,8.255,8.255,0,0,1-3.3,2.5A10.268,10.268,0,0,1,9.74,34.817ZM16.366,54a7.624,7.624,0,0,1-1.93.241,7.8,7.8,0,0,1-1.16-.087A7.634,7.634,0,0,1,7.924,42.54l.024-.041,8.123,11.035h0l.333.451Zm5.306-3.242-2.716,2.007-.191.133-.024.017-.152.1-9.076-12.3.142-.116.034-.024c.055-.046.113-.092.174-.135l2.716-2.007.178-.133,9.093,12.313Zm4.889-3.618-2.844,2.1-.314-.4s-8.186-11-8.119-11l-.367-.5h.147a11.664,11.664,0,0,0,3.808-.81l.369-.145.241.318,7.178,9.725.306.415Z" transform="translate(-3.39 -18.27)"/><path class="c" d="M18.528,118.76l-.024.041a7.634,7.634,0,0,0,5.352,11.611,7.8,7.8,0,0,0,1.16.087,7.624,7.624,0,0,0,1.93-.241h.048Zm6.488,11.223Z" transform="translate(-13.979 -94.522)"/><path class="c" d="M62.941,103.381l-7.185-9.732-.241-.318-.369.145a11.664,11.664,0,0,1-3.808.81H51.19l8.792,11.908,2.851-2.089.415-.306Z" transform="translate(-39.668 -75.225)"/><path class="c" d="M32.024,101.35l-.178.133-2.716,2.007c-.06.043-.118.089-.174.135l-.034.024-.142.116,9.076,12.3.152-.1.024-.017.191-.133,2.716-2,.178-.133Z" transform="translate(-22.664 -81.311)"/><text class="d" transform="translate(153.309 30.217)"><tspan x="0" y="0">TM</tspan></text><g class="e" transform="translate(0.161 0.232)"><path class="b" d="M32.53,42.216h.039c.241.012.482.029.712.055h.055q.343.039.695.094h.019c.229.039.461.082.692.13h.019c.258.055.519.113.779.178l.092.024h0c.482.121.941.263,1.411.42l.1.034c.241.08.466.164.7.241h0c.241.1.5.2.75.3h0c.241.106.494.215.738.328h.022A22.672,22.672,0,0,1,41.41,45.1h0c.466.316.885.574,1.286.856h0c.2.14.391.282.574.424h0c.159.121.314.241.461.369h0c.147.125.289.241.425.374a.056.056,0,0,1,.017.017,4.363,4.363,0,0,1,.338.326l.08.08c.111.116.219.241.321.347l.017.019c-.084-.13-.171-.263-.263-.4l-.065-.092c-.089-.125-.178-.241-.275-.381l-.014-.017c-.109-.145-.224-.289-.342-.437h0c-.121-.147-.241-.294-.371-.439s-.3-.342-.463-.511h0q-.482-.507-1.006-.994l-.014-.014h0c-.174-.159-.352-.318-.533-.482l-.014-.012c-.359-.311-.724-.61-1.11-.9L40.4,43.2c-.186-.14-.369-.275-.557-.405l-.043-.034h0c-.183-.13-.371-.256-.557-.376l-.027-.019c-.186-.118-.371-.241-.557-.342l-.087-.053c-.183-.109-.369-.212-.552-.311l-.046-.024c-.174-.092-.347-.181-.523-.263l-.075-.036c-.178-.084-.355-.164-.528-.241l-.1-.039c-.178-.075-.357-.142-.531-.2l-.043-.022c-.166-.055-.33-.106-.482-.152h-.024l-.07-.019c-.166-.043-.328-.082-.482-.111h-.1l-.241-.039-.26-.029c-1.353-.133-1.809.35-2.132.832h0c-.039.058-.082.121-.121.188s-.075.123-.111.191c-.012.019-.022.039-.031.058l-.084.162-.031.065c-.036.075-.07.152-.106.241.207,0,.417,0,.63.014" transform="translate(-25.192 -35.338)"/></g><g class="f" transform="translate(0.161 0.235)"><path class="b" d="M30.328,63.314a8.2,8.2,0,0,0,3.29-2.5,3.9,3.9,0,0,0-.429-.584,2.071,2.071,0,0,0-.241-.241l-.118-.121c-.046-.043-.087-.089-.135-.133s-.113-.109-.174-.162l-.1-.089-.219-.188-.055-.08c-.087-.068-.174-.14-.263-.207l-.041-.034-.3-.224a.058.058,0,0,1-.019-.014c-.109-.077-.217-.157-.33-.241h0c-.113-.082-.229-.159-.35-.241h0c-.374-.241-.769-.482-1.182-.724h0c-.41-.229-.839-.446-1.276-.651h-.014c-.434-.205-.88-.4-1.331-.569h-.024c-.446-.176-.9-.333-1.351-.482h-.034q-.673-.21-1.339-.362h-.036q-.661-.147-1.3-.229h-.058a10.246,10.246,0,0,0-1.218-.084h-.039c-.2,0-.384,0-.567.014a3.618,3.618,0,0,0-.4.039h-.014c-.135.017-.265.039-.393.063s-.191.043-.28.068l-.063.017h0l-.2.063h0l-.041.014a2.532,2.532,0,0,0-.412.193c-.06.036-.118.075-.171.113h0a1.64,1.64,0,0,0-.263.241,1.485,1.485,0,0,0-.1.128h0a1.665,1.665,0,0,0-.145.263h0v.022c-.014.034-.029.07-.041.1a.281.281,0,0,1-.012.027h0c-.014.041-.029.082-.041.123a5.317,5.317,0,0,0,.873,5.019,6,6,0,0,0,1.785,1.358,10.253,10.253,0,0,0,9.156.3" transform="translate(-14.827 -46.489)"/><path d="M40.149,29.034a9.571,9.571,0,0,0-4.563-3.377,6.814,6.814,0,0,1,.9-2.311,5.2,5.2,0,0,1,2.241-2.026.9.9,0,0,0-.63-1.688A6.893,6.893,0,0,0,34.961,22.4a8.6,8.6,0,0,0-1.119,2.822H33.8a9.727,9.727,0,0,0-1.536-.111,8.632,8.632,0,0,0-.9-2.82A6.889,6.889,0,0,0,28.422,19.3a.9.9,0,0,0-.748,1.643,5.157,5.157,0,0,1,2.089,2.183,6.775,6.775,0,0,1,.7,2.159,9.624,9.624,0,0,0-3.859,1.705L23.955,28.95c-2.689-3.121-6.968-6.088-10.388-6.4A3.8,3.8,0,0,0,9.8,24.157a7.477,7.477,0,0,0-.979,2.171A3.685,3.685,0,0,0,6.027,28.86h0A7.212,7.212,0,0,0,7.3,35.578a7.8,7.8,0,0,0,2.32,1.778,13.464,13.464,0,0,0,1.872.8l-2.139,1.58A9.708,9.708,0,0,0,6.167,51.287L4.09,55.018l4.178-.613a9.73,9.73,0,0,0,12.588.921l8.628-6.372,8.628-6.37a9.7,9.7,0,0,0,2.038-13.55M10.8,26.089c.034-.082.07-.159.106-.241a.541.541,0,0,0,.031-.065c.029-.053.055-.106.084-.157a.483.483,0,0,1,.031-.06c.036-.065.072-.13.111-.193s.082-.128.121-.186a1.96,1.96,0,0,1,2.125-.839,2.015,2.015,0,0,1,.26.031l.241.039h.048c.2.036.4.082.608.14h.024a9.647,9.647,0,0,1,1.056.381l.1.043h0c.176.072.352.15.531.241l.075.039c.371.178.748.379,1.122.6l.087.053c.386.241.769.482,1.148.74l.029.022h0c.188.13.371.265.557.4l.053.043a21.439,21.439,0,0,1,1.662,1.387v.012h0c.35.323.687.656,1.006.994h0c.159.171.314.342.463.511h0c.128.145.253.292.371.437v.014c.118.145.241.292.345.437a.135.135,0,0,1,0,.019c.1.125.186.241.275.376l.065.094c.092.133.178.265.263.4a.065.065,0,0,1-.017-.019c-.1-.116-.21-.241-.323-.347l-.077-.08c-.109-.111-.219-.217-.338-.326a.056.056,0,0,0-.017-.017c-.135-.125-.277-.241-.425-.371h0c-.147-.123-.3-.241-.461-.369s-.376-.285-.574-.425h0c-.374-.282-.784-.545-1.22-.81h-.014c-.217-.13-.439-.256-.666-.379h0q-.673-.364-1.384-.695H18.26l-.039-.017c-.241-.106-.463-.21-.7-.306h-.031c-.241-.1-.482-.193-.707-.282H16.76c-.241-.087-.466-.171-.7-.241l-.1-.034c-.241-.077-.466-.152-.7-.222l-.051-.014c-.222-.065-.444-.125-.663-.183l-.094-.024c-.222-.058-.446-.109-.668-.154l-.128-.077h-.019c-.224-.048-.449-.089-.671-.125h-.041c-.212-.034-.425-.063-.632-.087h-.118c-.21-.024-.42-.041-.627-.053h-.123c-.212,0-.422-.017-.63-.014h0m-.357,9.631A6.03,6.03,0,0,1,8.651,34.4a5.39,5.39,0,0,1-.917-4.976l.043-.128a.24.24,0,0,1,0-.024h0l.043-.106v-.019a1.784,1.784,0,0,1,.15-.273h0a1.6,1.6,0,0,1,.362-.376h0c.051-.039.109-.077.171-.116a2.533,2.533,0,0,1,.412-.193l.043-.014c.063-.024.13-.043.2-.065h0c.109-.029.219-.058.342-.084a3.937,3.937,0,0,1,.393-.063H9.91c.13-.017.265-.031.4-.041.014-.171.014-.164,0,0a9.648,9.648,0,0,1,1.826.068h.027a17.59,17.59,0,0,1,4.105,1.071h.024a22.208,22.208,0,0,1,2.629,1.228h0q.62.342,1.184.724h0c.121.08.241.157.355.241h0l.328.241.019.014.3.224.043.034.258.21.07.055.217.188.1.089c.058.055.118.106.174.162l.135.133.118.121c.082.084.159.169.241.256a4.013,4.013,0,0,1,.422.572,8.281,8.281,0,0,1-3.3,2.5,10.258,10.258,0,0,1-9.151-.292m6.618,19.163a7.685,7.685,0,0,1-1.93.241,7.8,7.8,0,0,1-1.16-.087A7.629,7.629,0,0,1,8.615,43.482l.027-.041,8.136,11.015.33.449Zm5.306-3.239-2.713,2-.188.133-.027.017-.152.1L10.207,41.656l.145-.113.031-.027c.058-.046.113-.092.174-.135l2.713-2,.181-.13,9.081,12.3Zm4.884-3.618L24.4,50.16l-.316-.408s-8.179-10.982-8.111-10.984l-.362-.5h.147a11.635,11.635,0,0,0,3.8-.81l.369-.145.241.318,7.176,9.72.306.415Z" transform="translate(-4.09 -19.227)"/></g><g class="e" transform="translate(0.161 0.232)"><path class="c" d="M19.249,119.63l-.024.041a7.627,7.627,0,0,0,5.33,11.6,7.832,7.832,0,0,0,1.16.087,7.593,7.593,0,0,0,1.93-.241l.048-.012Zm6.481,11.211h0" transform="translate(-14.688 -95.414)"/><path class="c" d="M63.579,104.259,56.4,94.538l-.241-.318-.369.145a11.636,11.636,0,0,1-3.8.81H51.84l8.784,11.9,2.841-2.1.412-.306Z" transform="translate(-40.323 -76.133)"/><path class="c" d="M32.692,102.24l-.178.133-2.713,2-.176.135-.031.027-.142.113,9.069,12.282.15-.106.027-.017c.063-.043.128-.087.188-.133l2.713-2,.181-.13Z" transform="translate(-23.333 -82.218)"/></g></g></svg>