<svg xmlns="http://www.w3.org/2000/svg" width="55.959" height="56.012" viewBox="0 0 55.959 56.012"><defs><style>.a{fill:#fff;}.b{fill:#ffca28;}</style></defs><g transform="translate(5.022 7.534)"><path class="a" d="M52.825,47.682h0l.055,0q.518.027,1.049.083h0l.082.01c.338.038.678.083,1.022.139h0l.03,0c.337.054.678.119,1.02.189h0l.028.006q.571.118,1.147.263h0l.135.035h0c.692.178,1.387.385,2.08.617h0l.153.052h0c.344.117.687.239,1.029.368h0l.012,0q.555.21,1.1.439l.019.008h0q.55.23,1.089.479l.032.015h0a33.407,33.407,0,0,1,3.032,1.587h0l.005,0c.652.387,1.276.788,1.862,1.2h0l0,0q.438.309.848.625h0q.35.27.678.545l.01.008c.217.182.426.365.626.549l.026.024c.173.16.337.32.5.48l.117.119c.165.171.326.342.475.513l.024.028c-.121-.193-.251-.388-.386-.583l-.1-.138c-.13-.186-.265-.372-.406-.559l-.019-.025q-.244-.322-.508-.645l-.016-.019q-.265-.324-.547-.647h0q-.331-.378-.685-.753l-.01-.01c-.468-.5-.965-.986-1.483-1.466l-.02-.019-.008-.007q-.386-.356-.786-.7l-.021-.018c-.53-.457-1.076-.9-1.634-1.32l-.08-.061q-.407-.305-.821-.6l-.044-.03-.007-.005q-.41-.285-.824-.554l-.042-.027q-.408-.263-.818-.506l-.131-.077c-.271-.159-.543-.313-.814-.459l-.067-.035q-.386-.205-.771-.39l-.113-.055c-.261-.124-.521-.239-.78-.347l-.152-.062c-.262-.106-.522-.207-.78-.3l-.051-.017c-.246-.084-.488-.157-.729-.224l-.035-.01-.1-.028q-.366-.1-.723-.165l-.071-.012-.071-.013c-.114-.02-.226-.038-.339-.054-.129-.018-.258-.035-.384-.046-1.984-.177-2.656.546-3.133,1.236h0q-.088.128-.179.276c-.054.088-.109.184-.163.282l-.047.087c-.04.075-.081.154-.121.235l-.047.1c-.053.111-.106.226-.157.346C52.2,47.657,52.511,47.667,52.825,47.682Z" transform="translate(-47.025 -45.074)"/><path class="a" d="M53.251,74.839a12.17,12.17,0,0,0,4.86-3.686,5.78,5.78,0,0,0-.634-.858q-.164-.188-.345-.376c-.056-.059-.117-.117-.176-.176s-.129-.131-.2-.2-.17-.158-.256-.236c-.048-.044-.095-.088-.144-.132-.1-.092-.213-.185-.323-.277l-.1-.085c-.125-.1-.253-.206-.384-.308l-.062-.049q-.214-.165-.438-.33l-.03-.022q-.237-.173-.484-.344l-.006,0q-.253-.175-.516-.346l-.005,0,0,0c-.552-.361-1.137-.711-1.745-1.047h0l-.008,0c-.608-.335-1.238-.656-1.884-.959l-.018-.009c-.643-.3-1.3-.582-1.965-.84l-.034-.013c-.661-.256-1.328-.49-1.994-.7l-.047-.014c-.663-.2-1.323-.383-1.975-.53l-.056-.012c-.649-.145-1.288-.26-1.909-.34l-.022,0-.036,0a15.439,15.439,0,0,0-1.8-.125h-.058c-.285,0-.564.007-.836.025-.2.014-.4.033-.593.058l-.021,0c-.2.026-.392.057-.58.1-.147.03-.282.063-.412.1l-.092.026-.008,0q-.151.044-.288.092l-.009,0-.061.022a3.723,3.723,0,0,0-.609.286h0a2.864,2.864,0,0,0-.25.167l0,0-.005,0a2.392,2.392,0,0,0-.39.368h0a2.291,2.291,0,0,0-.142.189l0,0-.006.009a2.645,2.645,0,0,0-.213.388v0l-.013.03c-.022.052-.043.1-.063.156l-.015.039,0,.006c-.022.061-.043.122-.063.182a7.908,7.908,0,0,0,1.351,7.337,8.858,8.858,0,0,0,2.631,2A15.122,15.122,0,0,0,53.251,74.839Z" transform="translate(-35.414 -57.567)"/></g><path d="M71.59,34.041a14.138,14.138,0,0,0-6.729-4.969,10.045,10.045,0,0,1,1.326-3.4,7.639,7.639,0,0,1,3.3-2.988,1.33,1.33,0,0,0-.928-2.492,10.153,10.153,0,0,0-4.637,4.079,12.675,12.675,0,0,0-1.648,4.161l-.059-.01a14.6,14.6,0,0,0-2.266-.16A12.7,12.7,0,0,0,58.621,24.1a10.154,10.154,0,0,0-4.333-4.4,1.33,1.33,0,0,0-1.1,2.419,7.631,7.631,0,0,1,3.083,3.218A10.062,10.062,0,0,1,57.3,28.519a14.158,14.158,0,0,0-5.7,2.516L47.7,33.918c-3.956-4.6-10.264-8.979-15.308-9.427a5.6,5.6,0,0,0-5.556,2.374h0a11.033,11.033,0,0,0-1.444,3.189,5.458,5.458,0,0,0-4.117,3.736h0A10.668,10.668,0,0,0,23.15,43.7a11.5,11.5,0,0,0,3.413,2.615,19.669,19.669,0,0,0,2.76,1.178l-3.157,2.331a14.31,14.31,0,0,0-4.682,17.03l-3.064,5.5,6.162-.906a14.345,14.345,0,0,0,18.559,1.36l12.722-9.394,12.721-9.394A14.3,14.3,0,0,0,71.59,34.041ZM28.312,29.7c.051-.12.1-.235.157-.346l.047-.1c.04-.081.08-.159.121-.235l.047-.087c.054-.1.109-.194.163-.282s.12-.191.179-.276h0c.477-.691,1.149-1.414,3.133-1.236.126.011.255.027.384.046.112.015.225.034.339.054h0l.071.012q.44.081.9.205l.035.01h0A14.317,14.317,0,0,1,35.444,28h0l.152.062h0c.259.108.519.223.78.347h0l.112.054h0c.548.264,1.1.56,1.651.883h0l.13.077h0c.567.338,1.132.7,1.69,1.093l.044.03h0q.414.29.821.6h0l.079.06h0c.85.643,1.674,1.332,2.449,2.048l.02.018h0c.518.479,1.015.97,1.483,1.466h0l.01.01h0q.354.375.685.753h0q.283.323.547.647l.016.019c.176.215.346.431.508.645l.019.025c.141.187.276.374.406.559l.1.138c.134.2.265.39.386.583l-.024-.028c-.149-.171-.309-.342-.475-.513l-.117-.118c-.159-.161-.324-.321-.5-.48l-.026-.024q-.3-.276-.626-.549l-.01-.008q-.328-.275-.678-.545h0q-.409-.316-.848-.625h0l0,0c-.58-.408-1.2-.806-1.84-1.188l-.022-.013-.005,0q-.48-.284-.98-.557l-.012-.007c-.66-.36-1.343-.7-2.041-1.024l-.032-.015-.058-.027q-.511-.234-1.031-.452l-.02-.008-.025-.01q-.518-.216-1.043-.415l-.035-.013-.012,0c-.342-.129-.685-.251-1.029-.368l-.154-.052c-.341-.114-.684-.224-1.026-.326l-.074-.021q-.49-.145-.98-.27l-.136-.036q-.5-.125-.988-.229l-.16-.033-.028-.006c-.332-.068-.663-.131-.99-.185l-.03,0-.031,0c-.313-.05-.623-.092-.931-.128l-.091-.011-.083-.01q-.466-.051-.923-.077l-.126-.006-.055,0c-.314-.015-.624-.025-.929-.022h0Zm-.525,14.253a8.858,8.858,0,0,1-2.631-2,7.908,7.908,0,0,1-1.351-7.337c.02-.062.042-.125.065-.188l.014-.039h0c.02-.052.041-.1.063-.156h0l.013-.03a2.633,2.633,0,0,1,.22-.4l0,0h0a2.331,2.331,0,0,1,.533-.557h0l.005,0a2.79,2.79,0,0,1,.253-.17h0a3.723,3.723,0,0,1,.609-.286h0l.061-.022q.141-.05.3-.1l.008,0c.157-.045.322-.088.5-.125s.382-.069.58-.1h0l.02,0h0c.193-.025.391-.044.593-.058.02-.256.019-.242,0,0a14.082,14.082,0,0,1,2.692.1h0l.036,0a26.122,26.122,0,0,1,6,1.6h0l.034.013h0A32.248,32.248,0,0,1,40.288,35.9h0c.608.336,1.193.686,1.745,1.047h0l0,0q.266.173.521.35l.006,0q.247.171.484.344l.03.022q.223.164.438.33l.062.049c.131.1.259.2.384.308l.1.085c.11.092.218.184.323.277.049.044.1.088.144.132.087.079.174.158.256.236s.132.131.2.2.12.117.176.176q.18.188.345.376a5.779,5.779,0,0,1,.634.858,12.17,12.17,0,0,1-4.86,3.686A15.122,15.122,0,0,1,27.787,43.952Zm9.758,28.255a11.263,11.263,0,0,1-2.857.368,11.5,11.5,0,0,1-1.709-.129,11.247,11.247,0,0,1-7.884-17.1l.038-.061L37.126,71.525h0l.49.663Zm7.806-4.776-4,2.954c-.091.067-.185.132-.278.2l-.038.026-.223.153L27.44,52.652l.212-.168.047-.037c.085-.067.17-.135.258-.2l4-2.954.264-.2L45.615,67.236Zm7.2-5.319L48.365,65.2l-.451-.611S35.855,48.4,35.953,48.395l-.54-.731.218-.009a17.172,17.172,0,0,0,5.61-1.193l.543-.214.347.47L52.713,61.05l.451.611Z" transform="translate(-18.42 -19.579)"/><g transform="translate(4.951 26.669)"><path class="b" d="M36.936,140.4l-.038.061a11.247,11.247,0,0,0,7.884,17.1,11.5,11.5,0,0,0,1.709.129,11.263,11.263,0,0,0,2.857-.368l.071-.019Zm9.555,16.532-.045,0h.045Z" transform="translate(-35.174 -131.368)"/><path class="b" d="M93.224,124.629,82.641,110.3l-.347-.47-.543.214a17.172,17.172,0,0,1-5.61,1.193l-.218.009,12.952,17.541,4.188-3.093.611-.451Z" transform="translate(-63.882 -109.827)"/><path class="b" d="M53.725,119.471l-.264.2-4,2.954c-.088.065-.173.132-.258.2l-.047.037-.212.168,13.371,18.108.223-.153.038-.026c.093-.064.186-.128.278-.2l4-2.954.264-.2Z" transform="translate(-44.874 -116.621)"/></g></svg>