<svg xmlns="http://www.w3.org/2000/svg" width="77.353" height="21.785" viewBox="0 0 77.353 21.785"><defs><style>.a{opacity:0.4;}.b{fill:#030504;}</style></defs><g class="a"><g transform="translate(0 0)"><path class="b" d="M52.19,212.31c0-5.868,4.5-9.828,10.449-9.828a8.858,8.858,0,0,1,8.627,5.527l-4.955,2.307a4.025,4.025,0,0,0-3.672-2.763,4.76,4.76,0,0,0,0,9.515,4.025,4.025,0,0,0,3.672-2.764l4.955,2.279a8.963,8.963,0,0,1-8.627,5.556c-5.95,0-10.449-3.988-10.449-9.829" transform="translate(-52.19 -201.166)"/><path class="b" d="M127.374,222.642v-19H138.9c3.93,0,5.638,2.621,5.638,4.843a4.191,4.191,0,0,1-3.246,4.359,4.481,4.481,0,0,1,3.615,4.644c0,2.648-1.793,5.156-5.608,5.156m-.6-13.134a1.094,1.094,0,0,0-1.138-1.082h-4.442v2.222h4.442A1.124,1.124,0,0,0,138.705,209.508Zm.371,7.151a1.23,1.23,0,0,0-1.339-1.224h-4.612v2.421h4.612A1.2,1.2,0,0,0,139.076,216.659Z" transform="translate(-107.072 -202.011)"/><path class="b" d="M193.39,219.194l2.99-4.273a8.845,8.845,0,0,0,6.121,2.45c1.081,0,2.106-.285,2.106-1.026,0-1.823-10.591.029-10.591-7.464,0-3.22,2.678-6.3,7.887-6.3a12.524,12.524,0,0,1,8.057,2.65l-3.076,4.073a9.587,9.587,0,0,0-5.58-1.88c-1.138,0-1.451.371-1.451.855,0,1.8,10.562.257,10.562,7.322,0,4.188-3.1,6.609-8.2,6.609-4.041,0-6.8-1.2-8.824-3.02" transform="translate(-155.261 -201.241)"/><path class="b" d="M280.575,208.475a10.742,10.742,0,1,1-10.728-10.867,10.769,10.769,0,0,1,10.728,10.867m-20.726,0a11.073,11.073,0,0,0,19.993,0,11.113,11.113,0,0,0-19.993,0Zm15.754,0a5.77,5.77,0,1,1-5.757-5.761A5.747,5.747,0,0,1,275.6,208.475Z" transform="translate(-203.221 -197.608)"/></g></g></svg>