<svg xmlns="http://www.w3.org/2000/svg" width="71.252" height="38.063" viewBox="0 0 71.252 38.063"><defs><style>.a{opacity:0.4;}.b{fill:#1a1818;}.c{opacity:0.5;mix-blend-mode:multiply;isolation:isolate;}.d{fill:#fff;}</style></defs><g class="a"><g transform="translate(0.714 0.322)"><path class="b" d="M242.1,326.608a4.6,4.6,0,0,0,4.514-3.8,4.512,4.512,0,0,0,8.966-.59,4.55,4.55,0,1,0,0-.242,4.509,4.509,0,0,0-8.954-.676h-4.8v2.224h1.745a1.644,1.644,0,0,1-1.469.6,2.068,2.068,0,0,1-.073-4.132,1.95,1.95,0,0,1,1.678.727l.138.214h2.634l-.221-.622a4.565,4.565,0,1,0-4.156,6.3Zm8.97-2.476a2.056,2.056,0,1,1,1.962-2.044A2.006,2.006,0,0,1,251.074,324.132Zm9.02-4.107a2.056,2.056,0,1,1-1.962,2.063A2.017,2.017,0,0,1,260.094,320.025Z" transform="translate(-220.484 -317.549)"/><path class="b" d="M355.77,326.388a4.262,4.262,0,0,0,2.255-3.789,4.455,4.455,0,0,0-1.55-3.375,5.51,5.51,0,0,0-3.743-1.017h-2.381v8.742h2.415A6.62,6.62,0,0,0,355.77,326.388Zm-2.9-1.723v-4.173a2.883,2.883,0,0,1,1.917.541,2.063,2.063,0,0,1,.721,1.566,1.943,1.943,0,0,1-.991,1.74A3.357,3.357,0,0,1,352.869,324.665Z" transform="translate(-306.183 -318.049)"/><path class="b" d="M202.83,361.514l1.223,3.172h1.883l1.223-3.189v3.189h2.618v-3.134a4.472,4.472,0,1,0,0-2.3v-3.165H206.5L205,360.3l-1.517-4.215h-3.273v8.6h2.618Zm11.333-3.094a1.966,1.966,0,1,1-1.929,1.975A1.955,1.955,0,0,1,214.163,358.42Z" transform="translate(-192.196 -346.689)"/><rect class="b" width="2.383" height="8.6" transform="translate(41.513 9.397)"/><path class="b" d="M284.247,365.176h2.44v-3.956l2.542,3.956h2.582v-8.6h-2.618v3.942l-2.509-3.942h-2.548v8.452l-2.165-2.9a2.746,2.746,0,0,0,.851-.55,3.128,3.128,0,0,0,.892-2.169,2.811,2.811,0,0,0-1.091-2.216,3.275,3.275,0,0,0-2.192-.622h-3.1v8.6h2.618v-1.948l1.37,1.948h2.924Zm-4.295-6.348h.457c.832,0,.921.49.921.7,0,.328-.16.72-.921.72h-.457Z" transform="translate(-250.749 -347.179)"/><path class="b" d="M355.863,355.943v3.942l-2.509-3.942h-2.548v8.6h2.551v-3.956l2.542,3.956h2.582v-2.8a4.615,4.615,0,0,0,4.3,2.814,4.5,4.5,0,0,0,4.55-4.315v-.853H362.5v2.174h1.729a1.664,1.664,0,0,1-1.453.565,2,2,0,0,1-.073-4,1.962,1.962,0,0,1,1.671.706l.138.209h2.626l-.224-.615a4.524,4.524,0,0,0-4.179-2.684,4.573,4.573,0,0,0-4.254,2.807v-2.606Z" transform="translate(-306.528 -346.545)"/><path class="b" d="M171.342,405.994h3.275l.716,1.8h6.594v-4.958l1.8,4.958h2.387l1.8-4.985V407.8h3.206V396.458H187.03l-2.1,5.935-2.124-5.935h-4.088v10.558l-4.2-10.558h-2.89L166.923,407.8h3.7Zm.8-2.52.818-2.477.818,2.477Z" transform="translate(-166.923 -377.457)"/><path class="b" d="M278.3,399.175v-2.717h-7.075V407.8H278.3v-2.954h-3.775v-1.526h3.606V400.6h-3.606v-1.425Z" transform="translate(-246.109 -377.457)"/><path class="b" d="M308.3,404.8l2.04,3h3.873l-2.886-3.839a3.534,3.534,0,0,0,1.214-.757,4.431,4.431,0,0,0,1.244-3.061,3.988,3.988,0,0,0-1.521-3.051,4.9,4.9,0,0,0-3.061-.633h-4.094V407.8H308.3Zm0-5.622h.871c1.435,0,1.547.858,1.547,1.121,0,.429-.2,1.149-1.547,1.149H308.3Z" transform="translate(-271.837 -377.457)"/><rect class="b" width="3.066" height="11.339" transform="translate(43.104 19.001)"/><path class="b" d="M373.018,402.168v-.025h-3.581l-.06.15a3.128,3.128,0,0,1-.46.745,2.693,2.693,0,0,1-1.806.694,2.63,2.63,0,1,1,0-5.258,2.719,2.719,0,0,1,1.017.2,3.4,3.4,0,0,1,1.22,1.214l.068.126h3.472l.054-.054h.151l-.05-.2a1.042,1.042,0,0,0-.008-.457,6.574,6.574,0,0,0-3.4-3.635,6.19,6.19,0,0,0-5.276.113,5.415,5.415,0,0,0-3.507,5.3,5.65,5.65,0,0,0,3.027,5.074,6.161,6.161,0,0,0,8.283-1.715l-.977,2.353h3.7l.715-1.8h3.275l.716,1.8h3.7l-4.507-11.339h-2.89l-2.79,6.715Zm3.379.3.818-2.477.818,2.477Z" transform="translate(-314.152 -376.452)"/><path class="b" d="M237.96,453.286a191.142,191.142,0,0,0-33.9-3.092c-21.081,0-34.222,3.77-34.352,3.808l.106.461a179.465,179.465,0,0,1,27.378-2.078c19.881,0,33.281,3.2,33.8,3.471l.161.088.129-.13c.483-.488,4.351-1.739,6.667-2.061l1.466-.2Z" transform="translate(-169.04 -418.254)"/></g><g class="c" transform="translate(0.714 0.322)"><path class="b" d="M242.1,326.608a4.6,4.6,0,0,0,4.514-3.8,4.512,4.512,0,0,0,8.966-.59,4.55,4.55,0,1,0,0-.242,4.509,4.509,0,0,0-8.954-.676h-4.8v2.224h1.745a1.644,1.644,0,0,1-1.469.6,2.068,2.068,0,0,1-.073-4.132,1.95,1.95,0,0,1,1.678.727l.138.214h2.634l-.221-.622a4.565,4.565,0,1,0-4.156,6.3Zm8.97-2.476a2.056,2.056,0,1,1,1.962-2.044A2.006,2.006,0,0,1,251.074,324.132Zm9.02-4.107a2.056,2.056,0,1,1-1.962,2.063A2.017,2.017,0,0,1,260.094,320.025Z" transform="translate(-220.484 -317.549)"/><path class="b" d="M355.77,326.388a4.262,4.262,0,0,0,2.255-3.789,4.455,4.455,0,0,0-1.55-3.375,5.51,5.51,0,0,0-3.743-1.017h-2.381v8.742h2.415A6.62,6.62,0,0,0,355.77,326.388Zm-2.9-1.723v-4.173a2.883,2.883,0,0,1,1.917.541,2.063,2.063,0,0,1,.721,1.566,1.943,1.943,0,0,1-.991,1.74A3.357,3.357,0,0,1,352.869,324.665Z" transform="translate(-306.183 -318.049)"/><path class="b" d="M202.83,361.514l1.223,3.172h1.883l1.223-3.189v3.189h2.618v-3.134a4.472,4.472,0,1,0,0-2.3v-3.165H206.5L205,360.3l-1.517-4.215h-3.273v8.6h2.618Zm11.333-3.094a1.966,1.966,0,1,1-1.929,1.975A1.955,1.955,0,0,1,214.163,358.42Z" transform="translate(-192.196 -346.689)"/><rect class="b" width="2.383" height="8.6" transform="translate(41.513 9.397)"/><path class="b" d="M284.247,365.176h2.44v-3.956l2.542,3.956h2.582v-8.6h-2.618v3.942l-2.509-3.942h-2.548v8.452l-2.165-2.9a2.746,2.746,0,0,0,.851-.55,3.128,3.128,0,0,0,.892-2.169,2.811,2.811,0,0,0-1.091-2.216,3.275,3.275,0,0,0-2.192-.622h-3.1v8.6h2.618v-1.948l1.37,1.948h2.924Zm-4.295-6.348h.457c.832,0,.921.49.921.7,0,.328-.16.72-.921.72h-.457Z" transform="translate(-250.749 -347.179)"/><path class="b" d="M355.863,355.943v3.942l-2.509-3.942h-2.548v8.6h2.551v-3.956l2.542,3.956h2.582v-2.8a4.615,4.615,0,0,0,4.3,2.814,4.5,4.5,0,0,0,4.55-4.315v-.853H362.5v2.174h1.729a1.664,1.664,0,0,1-1.453.565,2,2,0,0,1-.073-4,1.962,1.962,0,0,1,1.671.706l.138.209h2.626l-.224-.615a4.524,4.524,0,0,0-4.179-2.684,4.573,4.573,0,0,0-4.254,2.807v-2.606Z" transform="translate(-306.528 -346.545)"/><path class="b" d="M171.342,405.994h3.275l.716,1.8h6.594v-4.958l1.8,4.958h2.387l1.8-4.985V407.8h3.206V396.458H187.03l-2.1,5.935-2.124-5.935h-4.088v10.558l-4.2-10.558h-2.89L166.923,407.8h3.7Zm.8-2.52.818-2.477.818,2.477Z" transform="translate(-166.923 -377.457)"/><path class="b" d="M278.3,399.175v-2.717h-7.075V407.8H278.3v-2.954h-3.775v-1.526h3.606V400.6h-3.606v-1.425Z" transform="translate(-246.109 -377.457)"/><path class="b" d="M308.3,404.8l2.04,3h3.873l-2.886-3.839a3.534,3.534,0,0,0,1.214-.757,4.431,4.431,0,0,0,1.244-3.061,3.988,3.988,0,0,0-1.521-3.051,4.9,4.9,0,0,0-3.061-.633h-4.094V407.8H308.3Zm0-5.622h.871c1.435,0,1.547.858,1.547,1.121,0,.429-.2,1.149-1.547,1.149H308.3Z" transform="translate(-271.837 -377.457)"/><rect class="b" width="3.066" height="11.339" transform="translate(43.104 19.001)"/><path class="b" d="M373.018,402.168v-.025h-3.581l-.06.15a3.128,3.128,0,0,1-.46.745,2.693,2.693,0,0,1-1.806.694,2.63,2.63,0,1,1,0-5.258,2.719,2.719,0,0,1,1.017.2,3.4,3.4,0,0,1,1.22,1.214l.068.126h3.472l.054-.054h.151l-.05-.2a1.042,1.042,0,0,0-.008-.457,6.574,6.574,0,0,0-3.4-3.635,6.19,6.19,0,0,0-5.276.113,5.415,5.415,0,0,0-3.507,5.3,5.65,5.65,0,0,0,3.027,5.074,6.161,6.161,0,0,0,8.283-1.715l-.977,2.353h3.7l.715-1.8h3.275l.716,1.8h3.7l-4.507-11.339h-2.89l-2.79,6.715Zm3.379.3.818-2.477.818,2.477Z" transform="translate(-314.152 -376.452)"/><path class="b" d="M237.96,453.286a191.142,191.142,0,0,0-33.9-3.092c-21.081,0-34.222,3.77-34.352,3.808l.106.461a179.465,179.465,0,0,1,27.378-2.078c19.881,0,33.281,3.2,33.8,3.471l.161.088.129-.13c.483-.488,4.351-1.739,6.667-2.061l1.466-.2Z" transform="translate(-169.04 -418.254)"/></g><g transform="translate(0)"><g transform="translate(17.37)"><path class="b" d="M241.1,325.443a4.416,4.416,0,0,0,4.441-4.269v-.646h-4.477v1.78h1.974A1.881,1.881,0,0,1,241.1,323.4a2.343,2.343,0,0,1-.075-4.684,2.228,2.228,0,0,1,1.93.851l.069.106h2.218l-.112-.312a4.429,4.429,0,1,0-4.03,6.087Z" transform="translate(-236.472 -316.591)"/><path class="d" d="M240.718,325.184a4.487,4.487,0,1,1,4.144-6.248l.17.473h-2.455l-.1-.16a2.133,2.133,0,0,0-1.829-.8,2.223,2.223,0,0,0,.075,4.443,1.785,1.785,0,0,0,1.737-.846h-1.894v-2.021h4.718v.766A4.538,4.538,0,0,1,240.718,325.184Zm-.043-8.732a4.247,4.247,0,1,0,4.364,4.342v-.525H240.8v1.54h2.046l-.084.173a2.007,2.007,0,0,1-2.046,1.155,2.464,2.464,0,0,1-.075-4.925,2.368,2.368,0,0,1,2.031.906l.033.051h1.982l-.054-.151A4.279,4.279,0,0,0,240.675,316.452Z" transform="translate(-236.092 -316.211)"/></g><g transform="translate(52.92 9.599)"><path class="b" d="M388.714,365.057a4.349,4.349,0,0,0,4.422-4.148v-.627h-4.457v1.73h1.965a1.881,1.881,0,0,1-1.929,1.056,2.276,2.276,0,0,1-.075-4.551,2.24,2.24,0,0,1,1.922.827l.069.1h2.209l-.112-.3a4.387,4.387,0,1,0-4.013,5.914Z" transform="translate(-384.109 -356.454)"/><path class="d" d="M388.334,364.8a4.364,4.364,0,1,1,4.126-6.075l.171.465h-2.446l-.1-.156a2.145,2.145,0,0,0-1.821-.774,2.155,2.155,0,0,0,.075,4.31,1.793,1.793,0,0,0,1.726-.815h-1.881v-1.97h4.7v.748A4.471,4.471,0,0,1,388.334,364.8Zm-.042-8.483a4.126,4.126,0,1,0,4.344,4.215v-.507h-4.217v1.489h2.039l-.086.174a2.009,2.009,0,0,1-2.037,1.123,2.4,2.4,0,0,1-.075-4.792,2.38,2.38,0,0,1,2.022.881l.033.049h1.972l-.052-.141A4.261,4.261,0,0,0,388.292,356.315Z" transform="translate(-383.729 -356.074)"/></g><g transform="translate(26.691)"><path class="b" d="M279.689,325.443A4.366,4.366,0,1,0,275.3,321.1,4.371,4.371,0,0,0,279.689,325.443Zm0-6.7a2.33,2.33,0,1,1-2.26,2.339A2.3,2.3,0,0,1,279.69,318.748Z" transform="translate(-275.182 -316.591)"/><path class="d" d="M279.31,325.184a4.487,4.487,0,1,1,4.508-4.465A4.491,4.491,0,0,1,279.31,325.184Zm0-8.732a4.246,4.246,0,1,0,4.267,4.268A4.272,4.272,0,0,0,279.31,316.452Zm0,6.7a2.451,2.451,0,1,1,2.381-2.44A2.414,2.414,0,0,1,279.31,323.148Zm0-4.659a2.21,2.21,0,1,0,2.14,2.219A2.183,2.183,0,0,0,279.31,318.489Z" transform="translate(-274.802 -316.211)"/></g><g transform="translate(35.947)"><path class="b" d="M318.131,325.443a4.366,4.366,0,1,0-4.388-4.344A4.371,4.371,0,0,0,318.131,325.443Zm0-6.7a2.33,2.33,0,1,1-2.26,2.339A2.3,2.3,0,0,1,318.13,318.748Z" transform="translate(-313.623 -316.591)"/><path class="d" d="M317.751,325.184a4.487,4.487,0,1,1,4.508-4.465A4.492,4.492,0,0,1,317.751,325.184Zm0-8.732a4.246,4.246,0,1,0,4.267,4.268A4.272,4.272,0,0,0,317.751,316.452Zm0,6.7a2.451,2.451,0,1,1,2.381-2.44A2.414,2.414,0,0,1,317.75,323.148Zm0-4.659a2.21,2.21,0,1,0,2.14,2.219A2.183,2.183,0,0,0,317.75,318.489Z" transform="translate(-313.243 -316.211)"/></g><g transform="translate(45.258 0.161)"><path class="b" d="M357.608,325.247a4.087,4.087,0,0,0,2.18-3.64,4.269,4.269,0,0,0-1.5-3.247,5.461,5.461,0,0,0-3.684-.98h-2.2v8.41h2.231A6.606,6.606,0,0,0,357.608,325.247Zm-3.061-6.026a3.4,3.4,0,0,1,2.323.608,2.334,2.334,0,0,1,.829,1.778,2.216,2.216,0,0,1-1.152,1.984,3.952,3.952,0,0,1-1.965.359H354.5v-4.728Z" transform="translate(-352.289 -317.261)"/><path class="d" d="M354.261,325.532h-2.352v-8.651h2.317a5.57,5.57,0,0,1,3.759,1.006,4.392,4.392,0,0,1,1.545,3.341,4.208,4.208,0,0,1-2.246,3.747A6.717,6.717,0,0,1,354.261,325.532Zm-2.111-.241h2.111a6.49,6.49,0,0,0,2.913-.53h0a3.965,3.965,0,0,0,2.114-3.532,4.143,4.143,0,0,0-1.454-3.153,5.349,5.349,0,0,0-3.609-.954H352.15Zm2.053-1.6H354v-4.969h.17a3.506,3.506,0,0,1,2.4.636,2.457,2.457,0,0,1,.871,1.87,2.336,2.336,0,0,1-1.218,2.091A4.054,4.054,0,0,1,354.2,323.691Zm.036-4.728v4.487a3.8,3.8,0,0,0,1.875-.346,2.094,2.094,0,0,0,1.085-1.876,2.211,2.211,0,0,0-.784-1.685A3.223,3.223,0,0,0,354.239,318.963Z" transform="translate(-351.909 -316.881)"/></g><g transform="translate(8.164 9.803)"><path class="b" d="M205.489,361.364v4.325h2.192v-8.266h-2.937l-1.713,4.772-1.733-4.772h-2.936v8.266h2.192v-4.3l1.673,4.3h1.59Z" transform="translate(-198.241 -357.303)"/><path class="d" d="M207.422,365.43h-2.433v-3.8l-1.469,3.8h-1.755l-1.47-3.779v3.779h-2.432v-8.507H201l1.648,4.537,1.629-4.537h3.142Zm-2.192-.241h1.951v-8.025h-2.732l-1.8,5.006-1.818-5.006H198.1v8.025h1.951v-4.821l1.875,4.821h1.425l1.875-4.849Z" transform="translate(-197.862 -356.923)"/></g><g transform="translate(17.814 9.645)"><path class="b" d="M242.855,356.767a4.293,4.293,0,1,0,4.419,4.312A4.371,4.371,0,0,0,242.855,356.767Zm0,6.53a2.24,2.24,0,1,1,2.227-2.23A2.231,2.231,0,0,1,242.853,363.3Z" transform="translate(-238.316 -356.647)"/><path class="d" d="M242.476,365.09a4.413,4.413,0,1,1,4.539-4.39A4.471,4.471,0,0,1,242.476,365.09Zm0-8.582a4.172,4.172,0,1,0,4.3,4.192A4.251,4.251,0,0,0,242.476,356.508Zm0,6.53a2.36,2.36,0,1,1,2.348-2.351A2.352,2.352,0,0,1,242.474,363.037Zm0-4.48a2.12,2.12,0,1,0,2.107,2.129A2.12,2.12,0,0,0,242.474,358.557Z" transform="translate(-237.937 -356.267)"/></g><g transform="translate(27.218 9.803)"><path class="b" d="M282.7,362.1a2.92,2.92,0,0,0,.839-2.033A2.616,2.616,0,0,0,282.516,358a3.155,3.155,0,0,0-2.094-.579h-2.93v8.266h2.192v-2.511l1.782,2.511h2.383l-2.243-2.973A2.6,2.6,0,0,0,282.7,362.1Zm-3.02-2.869h.716c1.135,0,1.192.793,1.192.953,0,.292-.116.973-1.192.973h-.716Z" transform="translate(-277.372 -357.303)"/><path class="d" d="M283.711,365.43h-2.686l-1.6-2.254v2.254h-2.433v-8.507h3.05a3.264,3.264,0,0,1,2.169.6,2.735,2.735,0,0,1,1.073,2.161,3.046,3.046,0,0,1-.877,2.121h0a2.668,2.668,0,0,1-.981.59Zm-2.562-.241h2.079l-2.2-2.92.168-.049a2.475,2.475,0,0,0,1.049-.587,2.793,2.793,0,0,0,.8-1.945,2.5,2.5,0,0,0-.982-1.972,3.045,3.045,0,0,0-2.019-.553h-2.81v8.025h1.951V362.42Zm-1.128-4.29h-.836v-2.167h.836c1.276,0,1.313.963,1.313,1.073C281.333,360.061,281.238,360.9,280.02,360.9Zm-.6-.241h.6c.933,0,1.072-.535,1.072-.853,0-.2-.077-.832-1.072-.832h-.6Z" transform="translate(-276.992 -356.923)"/></g><g transform="translate(42.534 9.803)"><rect class="b" width="1.951" height="8.266" transform="translate(0.12 0.12)"/><path class="d" d="M342.788,365.43H340.6v-8.507h2.192Zm-1.951-.241h1.71v-8.025h-1.71Z" transform="translate(-340.596 -356.923)"/></g><g transform="translate(34.197 9.803)"><path class="b" d="M308.6,361.074l2.991,4.614h2.266v-8.266h-2.192v4.607l-2.958-4.607h-2.23v8.266H308.6Z" transform="translate(-306.353 -357.303)"/><path class="d" d="M313.595,365.43h-2.452l-2.805-4.328v4.328h-2.364v-8.507h2.417l2.772,4.317v-4.317h2.432Zm-2.321-.241h2.08v-8.025H311.4v4.9l-3.144-4.9h-2.044v8.025H308.1v-4.9Z" transform="translate(-305.974 -356.923)"/></g><g transform="translate(45.37 9.803)"><path class="b" d="M355,361.074l2.991,4.614h2.266v-8.266h-2.192v4.607l-2.958-4.607h-2.23v8.266H355Z" transform="translate(-352.756 -357.303)"/><path class="d" d="M360,365.43h-2.452L354.74,361.1v4.328h-2.364v-8.507h2.417l2.772,4.317v-4.317H360Zm-2.321-.241h2.08v-8.025h-1.951v4.9l-3.144-4.9h-2.044v8.025H354.5v-4.9Z" transform="translate(-352.376 -356.923)"/></g><g transform="translate(58.512 19.326)"><path class="b" d="M412.338,396.969l-4.631,11.052h3.264l.734-1.835h3.7l.734,1.835H419.4l-4.432-11.052Zm2.372,7.136h-2.358l1.179-3.54Z" transform="translate(-407.526 -396.849)"/><path class="d" d="M419.008,407.761h-3.524l-.734-1.835h-3.535l-.733,1.835h-3.527l4.732-11.292h2.792Zm-3.361-.241h3l-4.335-10.811h-2.469l-4.53,10.811h3l.734-1.835h3.861Zm-1.341-3.675h-2.692l1.346-4.041Zm-2.358-.241h2.024l-1.012-3.039Z" transform="translate(-406.955 -396.469)"/></g><g transform="translate(0 19.326)"><path class="b" d="M169.338,396.969l-4.631,11.052h3.264l.734-1.835h3.7l.734,1.835H176.4l-4.432-11.052Zm2.372,7.136h-2.358l1.179-3.54Z" transform="translate(-164.526 -396.849)"/><path class="d" d="M176.009,407.761h-3.524l-.734-1.835h-3.535l-.734,1.835h-3.526l4.732-11.292h2.792l.03.076Zm-3.361-.241h3l-4.335-10.811h-2.469l-4.531,10.811h3l.734-1.835h3.861Zm-1.341-3.675h-2.692l1.346-4.041Zm-2.358-.241h2.024l-1.012-3.039Z" transform="translate(-163.956 -396.469)"/></g><g transform="translate(12.045 19.326)"><path class="b" d="M220.6,403.494l-2.355-6.525h-3.772v11.052h2.8v-6.193l2.268,6.193h2.1l2.267-6.228v6.228h2.8V396.969h-3.772Z" transform="translate(-214.356 -396.848)"/><path class="d" d="M226.444,407.761h-3.036V402.1l-2.063,5.666h-2.269l-2.063-5.635v5.635h-3.036V396.469h3.977l2.27,6.289,2.243-6.289h3.977Zm-2.8-.241H226.2V396.71h-3.567l-2.411,6.761-2.441-6.761h-3.567v10.811h2.555v-6.752l2.472,6.752h1.932l2.472-6.791Z" transform="translate(-213.977 -396.469)"/></g><g transform="translate(25.709 19.326)"><path class="b" d="M271.223,408.021h6.765V405.5h-3.873v-2.034h3.7v-2.282h-3.7v-1.931h3.873v-2.282h-6.765Z" transform="translate(-271.102 -396.848)"/><path class="d" d="M277.729,407.761h-7.006V396.469h7.006v2.523h-3.873v1.691h3.7V403.2h-3.7V405h3.873Zm-6.765-.241h6.525v-2.282h-3.873v-2.275h3.7v-2.041h-3.7v-2.172h3.873V396.71h-6.525Z" transform="translate(-270.723 -396.469)"/></g><g transform="translate(34.081 19.326)"><path class="b" d="M313.206,403.408a4.244,4.244,0,0,0,1.194-2.934,3.79,3.79,0,0,0-1.463-2.91,4.811,4.811,0,0,0-2.992-.595h-3.953v11.052h2.781v-3.6l2.472,3.6H314.6l-2.879-3.8A3.21,3.21,0,0,0,313.206,403.408Zm-4.432-4.158h1.141c1.745,0,1.834,1.15,1.834,1.381,0,.424-.179,1.409-1.834,1.409h-1.141Z" transform="translate(-305.873 -396.849)"/><path class="d" d="M314.46,407.761H310.8l-2.288-3.336v3.336h-3.022V396.469h4.073a4.971,4.971,0,0,1,3.063.618,3.919,3.919,0,0,1,1.511,3.007,4.357,4.357,0,0,1-1.235,3.025h0a3.368,3.368,0,0,1-1.362.8Zm-3.531-.241h3.046l-2.843-3.748.177-.044a3.1,3.1,0,0,0,1.438-.79,4.134,4.134,0,0,0,1.153-2.843,3.667,3.667,0,0,0-1.413-2.813,4.732,4.732,0,0,0-2.921-.571h-3.833v10.811h2.54v-3.872Zm-1.394-5.738h-1.261v-3.032h1.261c1.86,0,1.954,1.251,1.954,1.5C311.489,400.611,311.349,401.782,309.535,401.782Zm-1.021-.241h1.021c1.491,0,1.713-.808,1.713-1.289,0-.21-.082-1.261-1.713-1.261h-1.021Z" transform="translate(-305.493 -396.469)"/></g><g transform="translate(44.166 19.326)"><rect class="b" width="2.652" height="11.052" transform="translate(0.12 0.12)"/><path class="d" d="M350.267,407.761h-2.893V396.469h2.893Zm-2.652-.241h2.411V396.71h-2.411Z" transform="translate(-347.374 -396.469)"/></g><g transform="translate(47.851 19.111)"><path class="b" d="M375.185,403.1h-3.272a2.875,2.875,0,0,1-2.45,1.784,3.173,3.173,0,0,1-3.326-3.077,2.973,2.973,0,0,1,3.247-2.982,3.162,3.162,0,0,1,2.487,1.627h3.31a.729.729,0,0,0,.023-.4,6.025,6.025,0,0,0-5.543-3.973c-4.315,0-6.48,2.609-6.48,5.7,0,3.189,2.591,5.784,6.48,5.784,3.831,0,5.463-3.886,5.5-4.054A1.8,1.8,0,0,0,375.185,403.1Z" transform="translate(-363.06 -395.956)"/><path class="d" d="M369.281,407.3c-3.825,0-6.6-2.483-6.6-5.9,0-3.534,2.591-5.818,6.6-5.818a6.166,6.166,0,0,1,5.656,4.051.744.744,0,0,1-.051.525l-.035.035H371.42l-.034-.063A3.061,3.061,0,0,0,369,398.561a2.855,2.855,0,0,0-3.126,2.862,3.065,3.065,0,0,0,3.205,2.956,2.773,2.773,0,0,0,2.338-1.709l.03-.075h3.467l.007.113a1.9,1.9,0,0,1-.026.442C374.788,403.643,372.976,407.3,369.281,407.3Zm0-11.482c-4.694,0-6.36,3-6.36,5.578,0,3.282,2.675,5.664,6.36,5.664,3.8,0,5.373-3.922,5.384-3.961a1.325,1.325,0,0,0,.023-.261h-3.077a2.962,2.962,0,0,1-2.528,1.784,3.3,3.3,0,0,1-3.446-3.2,3.083,3.083,0,0,1,3.367-3.1,3.2,3.2,0,0,1,2.557,1.627h3.152a.8.8,0,0,0,0-.237A5.924,5.924,0,0,0,369.281,395.817Z" transform="translate(-362.68 -395.576)"/></g><g transform="translate(48.03 19.001)"><path class="b" d="M369.921,404.368a2.916,2.916,0,1,1,0-5.83,3.012,3.012,0,0,1,2.628,1.51h3.195a5.833,5.833,0,1,0,.019,2.729h-3.172A3.007,3.007,0,0,1,369.921,404.368Z" transform="translate(-363.803 -395.503)"/><path class="d" d="M369.542,407.023a5.952,5.952,0,1,1,5.939-7.384l.038.15H372.1l-.034-.061a2.9,2.9,0,0,0-2.523-1.449,2.8,2.8,0,1,0,0,5.589,2.879,2.879,0,0,0,2.563-1.526l.034-.065h3.4l-.036.148A6.056,6.056,0,0,1,369.542,407.023Zm0-11.659a5.712,5.712,0,1,0,5.686,7.154h-2.945a3.12,3.12,0,0,1-2.741,1.59,3.036,3.036,0,1,1,0-6.07,3.139,3.139,0,0,1,2.7,1.51h2.968A5.84,5.84,0,0,0,369.542,395.364Z" transform="translate(-363.423 -395.123)"/></g><g transform="translate(0.539 32.496)"><path class="b" d="M166.333,455.488s28.253-8.187,69.91-.722c-2.328.321-6.421,1.605-6.983,2.167C228.377,456.451,200.847,450.19,166.333,455.488Z" transform="translate(-166.3 -451.514)"/><path class="d" d="M229.176,456.731l-.079-.043c-1.083-.59-28.935-6.636-62.852-1.431l-.052-.235a114.781,114.781,0,0,1,19.356-3.165,191.777,191.777,0,0,1,50.609,2.439l.748.134-.752.1c-2.394.33-6.407,1.625-6.914,2.133Zm-34.932-3.81c19.635,0,33.515,2.987,34.889,3.52a23.571,23.571,0,0,1,6.29-2.031A191.345,191.345,0,0,0,185.58,452.1a130.956,130.956,0,0,0-16.945,2.567A186.5,186.5,0,0,1,194.244,452.921Z" transform="translate(-166.194 -451.164)"/></g></g></g></svg>