<svg xmlns="http://www.w3.org/2000/svg" xmlns:xlink="http://www.w3.org/1999/xlink" width="24.318" height="20.894" viewBox="0 0 24.318 20.894"><defs><style>.a{fill:#b33cc8;}.b{clip-path:url(#a);}</style><clipPath id="a"><path class="a" d="M0,12.469H24.318V-8.425H0Z" transform="translate(0 8.425)"/></clipPath></defs><g transform="translate(0 8.425)"><g class="b" transform="translate(0 -8.425)"><g transform="translate(0 0)"><path class="a" d="M.444,7.79a22.393,22.393,0,0,1,6.292,7.15,1.384,1.384,0,0,0,2.435-.079c2.195-4.424,7.358-13.647,14.622-19.125a.553.553,0,0,0-.568-.942A27.338,27.338,0,0,0,17.037-1.18,37.972,37.972,0,0,0,7.951,9.02S5.265,4.028,1.8,4.341A2.119,2.119,0,0,0-.246,5.955,1.719,1.719,0,0,0,.444,7.79" transform="translate(0.3 5.264)"/></g></g></g></svg>