<?xml version="1.0" encoding="UTF-8"?>
<svg width="822px" height="375px" viewBox="0 0 822 375" version="1.1" xmlns="http://www.w3.org/2000/svg" xmlns:xlink="http://www.w3.org/1999/xlink">
    <title>Path</title>
    <defs>
        <linearGradient x1="50%" y1="0%" x2="50%" y2="100%" id="linearGradient-1">
            <stop stop-color="#FFC700" offset="0%"></stop>
            <stop stop-color="#FFC700" offset="50.2040732%"></stop>
            <stop stop-color="#FFC700" offset="100%"></stop>
        </linearGradient>
    </defs>
    <g id="hex" stroke="none" stroke-width="1" fill="none" fill-rule="evenodd">
        <g id="Artboard" transform="translate(-272.000000, 0.000000)" fill="url(#linearGradient-1)">
            <polygon id="Path" points="366.040039 -2 373.286 12.9429 358.949 37.6372 373.286 62.4872 358.949 87.3372 330.2987 87.4071 315.9617 112.3188 330.2987 137.0979 315.9617 162.0859 287.2867 162.0188 272.8826 186.7788 287.2867 211.7859 315.9617 211.7859 330.2987 236.4788 315.937 261.46 330.2987 286.31 358.949 286.2217 373.286 311.0717 358.949 335.8369 373.286 360.7568 365.068237 377 1001.11902 377 992.903 360.6869 1007.24 335.9217 992.903 311.0427 1007.24 286.31 1035.8893 286.31 1050.252 261.46 1035.8893 236.4788 1050.252 211.7849 1078.9684 211.7859 1093.2393 187 1078.9684 162.014 1050.252 162.014 1035.8893 137.0979 1050.252 112.3188 1035.915 87.3372 1007.24 87.4071 992.903 62.5571 1007.24 37.6372 992.903 12.872 1000.35303 -2"></polygon>
        </g>
    </g>
</svg>