<svg xmlns="http://www.w3.org/2000/svg" width="1596.19" height="547.717" viewBox="0 0 1596.19 547.717"><defs><style>.a{opacity:0.75;}.b{fill:#FFC700;stroke:#fff;}</style></defs><g transform="translate(544.756 372.652)"><g class="a" transform="translate(-544.178 -372.152)"><g transform="translate(0 0)"><g transform="translate(0)"><g transform="translate(344.294 173.898)"><path class="b" d="M43.012-43.9H14.337C9.577-35.626,4.76-27.352,0-19.079,4.76-10.8,9.577-2.531,14.337,5.8H43.012c4.76-8.274,9.577-16.548,14.337-24.878Q50.209-31.489,43.012-43.9Z" transform="translate(0 43.9)"/></g><g transform="translate(344.294 124.137)"><path class="b" d="M43.012-43.9H14.337C9.577-35.626,4.76-27.352,0-19.079,4.76-10.8,9.577-2.531,14.337,5.8H43.012c4.76-8.274,9.577-16.548,14.337-24.878Q50.209-31.489,43.012-43.9Z" transform="translate(0 43.9)"/></g><g transform="translate(344.294 74.522)"><path class="b" d="M43.012-43.9H14.337C9.577-35.626,4.76-27.352,0-19.079,4.76-10.8,9.577-2.531,14.337,5.8H43.012c4.76-8.274,9.577-16.548,14.337-24.878Q50.209-31.489,43.012-43.9Z" transform="translate(0 43.9)"/></g><g transform="translate(387.373 198.819)"><path class="b" d="M43.012-43.9H14.337C9.577-35.626,4.76-27.352,0-19.079,4.76-10.8,9.577-2.531,14.337,5.8H43.012c4.76-8.274,9.577-16.548,14.337-24.878Q50.209-31.489,43.012-43.9Z" transform="translate(0 43.9)"/></g><g transform="translate(387.373 149.057)"><path class="b" d="M43.012-43.9H14.337C9.577-35.626,4.76-27.352,0-19.079,4.76-10.8,9.577-2.531,14.337,5.8H43.012c4.76-8.274,9.577-16.548,14.337-24.878Q50.209-31.489,43.012-43.9Z" transform="translate(0 43.9)"/></g><g transform="translate(387.373 99.443)"><path class="b" d="M43.012-43.9H14.337C9.577-35.626,4.76-27.352,0-19.079,4.76-10.8,9.577-2.531,14.337,5.8H43.012c4.76-8.274,9.577-16.548,14.337-24.878Q50.209-31.489,43.012-43.9Z" transform="translate(0 43.9)"/></g><g transform="translate(344.294 24.841)"><path class="b" d="M43.012-43.9H14.337C9.577-35.626,4.76-27.352,0-19.079,4.76-10.8,9.577-2.531,14.337,5.8H43.012c4.76-8.274,9.577-16.548,14.337-24.878Q50.209-31.489,43.012-43.9Z" transform="translate(0 43.9)"/></g><g transform="translate(387.373 49.761)"><path class="b" d="M43.012-43.9H14.337C9.577-35.626,4.76-27.352,0-19.079,4.76-10.8,9.577-2.531,14.337,5.8H43.012c4.76-8.274,9.577-16.548,14.337-24.878Q50.209-31.489,43.012-43.9Z" transform="translate(0 43.9)"/></g><g transform="translate(387.373)"><path class="b" d="M43.012-43.9H14.337C9.577-35.626,4.76-27.352,0-19.079,4.76-10.8,9.577-2.531,14.337,5.8H43.012c4.76-8.274,9.577-16.548,14.337-24.878Q50.209-31.489,43.012-43.9Z" transform="translate(0 43.9)"/></g><g transform="translate(430.36 124.137)"><path class="b" d="M43.012-43.9H14.337C9.577-35.626,4.76-27.352,0-19.079,4.76-10.8,9.577-2.531,14.337,5.8H43.012c4.76-8.274,9.577-16.548,14.337-24.878Q50.209-31.489,43.012-43.9Z" transform="translate(0 43.9)"/></g><g transform="translate(430.36 74.522)"><path class="b" d="M43.012-43.9H14.337C9.577-35.626,4.76-27.352,0-19.079,4.76-10.8,9.577-2.531,14.337,5.8H43.012c4.76-8.274,9.577-16.548,14.337-24.878Q50.209-31.489,43.012-43.9Z" transform="translate(0 43.9)"/></g><g transform="translate(430.36 24.841)"><path class="b" d="M43.012-43.9H14.337C9.577-35.626,4.76-27.352,0-19.079,4.76-10.8,9.577-2.531,14.337,5.8H43.012c4.76-8.274,9.577-16.548,14.337-24.878Q50.209-31.489,43.012-43.9Z" transform="translate(0 43.9)"/></g><g transform="translate(344.294 472.098)"><path class="b" d="M43.012-43.9H14.337C9.577-35.626,4.76-27.352,0-19.079,4.76-10.8,9.577-2.531,14.337,5.8H43.012c4.76-8.274,9.577-16.548,14.337-24.878Q50.209-31.489,43.012-43.9Z" transform="translate(0 43.9)"/></g><g transform="translate(344.294 422.337)"><path class="b" d="M43.012-43.9H14.337C9.577-35.626,4.76-27.352,0-19.079,4.76-10.8,9.577-2.531,14.337,5.8H43.012c4.76-8.274,9.577-16.548,14.337-24.878Q50.209-31.489,43.012-43.9Z" transform="translate(0 43.9)"/></g><g transform="translate(344.294 372.722)"><path class="b" d="M43.012-43.9H14.337C9.577-35.626,4.76-27.352,0-19.079,4.76-10.8,9.577-2.531,14.337,5.8H43.012c4.76-8.274,9.577-16.548,14.337-24.878Q50.209-31.489,43.012-43.9Z" transform="translate(0 43.9)"/></g><g transform="translate(387.373 497.018)"><path class="b" d="M43.012-43.9H14.337C9.577-35.626,4.76-27.352,0-19.079,4.76-10.8,9.577-2.531,14.337,5.8H43.012c4.76-8.274,9.577-16.548,14.337-24.878Q50.209-31.489,43.012-43.9Z" transform="translate(0 43.9)"/></g><g transform="translate(387.373 447.257)"><path class="b" d="M43.012-43.9H14.337C9.577-35.626,4.76-27.352,0-19.079,4.76-10.8,9.577-2.531,14.337,5.8H43.012c4.76-8.274,9.577-16.548,14.337-24.878Q50.209-31.489,43.012-43.9Z" transform="translate(0 43.9)"/></g><g transform="translate(387.373 397.643)"><path class="b" d="M43.012-43.9H14.337C9.577-35.626,4.76-27.352,0-19.079,4.76-10.8,9.577-2.531,14.337,5.8H43.012c4.76-8.274,9.577-16.548,14.337-24.878Q50.209-31.489,43.012-43.9Z" transform="translate(0 43.9)"/></g><g transform="translate(344.294 323.04)"><path class="b" d="M43.012-43.9H14.337C9.577-35.626,4.76-27.352,0-19.079,4.76-10.8,9.577-2.531,14.337,5.8H43.012c4.76-8.274,9.577-16.548,14.337-24.878Q50.209-31.489,43.012-43.9Z" transform="translate(0 43.9)"/></g><g transform="translate(344.294 273.279)"><path class="b" d="M43.012-43.9H14.337C9.577-35.626,4.76-27.352,0-19.079,4.76-10.8,9.577-2.531,14.337,5.8H43.012c4.76-8.274,9.577-16.548,14.337-24.878Q50.209-31.489,43.012-43.9Z" transform="translate(0 43.9)"/></g><g transform="translate(344.294 223.664)"><path class="b" d="M43.012-43.9H14.337C9.577-35.626,4.76-27.352,0-19.079,4.76-10.8,9.577-2.531,14.337,5.8H43.012c4.76-8.274,9.577-16.548,14.337-24.878Q50.209-31.489,43.012-43.9Z" transform="translate(0 43.9)"/></g><g transform="translate(387.373 347.96)"><path class="b" d="M43.012-43.9H14.337C9.577-35.626,4.76-27.352,0-19.079,4.76-10.8,9.577-2.531,14.337,5.8H43.012c4.76-8.274,9.577-16.548,14.337-24.878Q50.209-31.489,43.012-43.9Z" transform="translate(0 43.9)"/></g><g transform="translate(387.373 298.2)"><path class="b" d="M43.012-43.9H14.337C9.577-35.626,4.76-27.352,0-19.079,4.76-10.8,9.577-2.531,14.337,5.8H43.012c4.76-8.274,9.577-16.548,14.337-24.878Q50.209-31.489,43.012-43.9Z" transform="translate(0 43.9)"/></g><g transform="translate(430.36 472.098)"><path class="b" d="M43.012-43.9H14.337C9.577-35.626,4.76-27.352,0-19.079,4.76-10.8,9.577-2.531,14.337,5.8H43.012c4.76-8.274,9.577-16.548,14.337-24.878Q50.209-31.489,43.012-43.9Z" transform="translate(0 43.9)"/></g><g transform="translate(430.36 422.337)"><path class="b" d="M43.012-43.9H14.337C9.577-35.626,4.76-27.352,0-19.079,4.76-10.8,9.577-2.531,14.337,5.8H43.012c4.76-8.274,9.577-16.548,14.337-24.878Q50.209-31.489,43.012-43.9Z" transform="translate(0 43.9)"/></g><g transform="translate(430.36 372.722)"><path class="b" d="M43.012-43.9H14.337C9.577-35.626,4.76-27.352,0-19.079,4.76-10.8,9.577-2.531,14.337,5.8H43.012c4.76-8.274,9.577-16.548,14.337-24.878Q50.209-31.489,43.012-43.9Z" transform="translate(0 43.9)"/></g><g transform="translate(172.193 173.898)"><path class="b" d="M43.012-43.9H14.337C9.577-35.626,4.76-27.352,0-19.079,4.76-10.8,9.577-2.531,14.337,5.8H43.012c4.76-8.274,9.577-16.548,14.337-24.878Q50.209-31.489,43.012-43.9Z" transform="translate(0 43.9)"/></g><g transform="translate(172.193 124.137)"><path class="b" d="M43.012-43.9H14.337C9.577-35.626,4.76-27.352,0-19.079,4.76-10.8,9.577-2.531,14.337,5.8H43.012c4.76-8.274,9.577-16.548,14.337-24.878Q50.209-31.489,43.012-43.9Z" transform="translate(0 43.9)"/></g><g transform="translate(172.193 74.522)"><path class="b" d="M43.012-43.9H14.337C9.577-35.626,4.76-27.352,0-19.079,4.76-10.8,9.577-2.531,14.337,5.8H43.012c4.76-8.274,9.577-16.548,14.337-24.878Q50.209-31.489,43.012-43.9Z" transform="translate(0 43.9)"/></g><g transform="translate(215.272 198.819)"><path class="b" d="M43.012-43.9H14.337C9.577-35.626,4.76-27.352,0-19.079,4.76-10.8,9.577-2.531,14.337,5.8H43.012c4.76-8.274,9.577-16.548,14.337-24.878Q50.209-31.489,43.012-43.9Z" transform="translate(0 43.9)"/></g><g transform="translate(215.272 149.057)"><path class="b" d="M43.012-43.9H14.337C9.577-35.626,4.76-27.352,0-19.079,4.76-10.8,9.577-2.531,14.337,5.8H43.012c4.76-8.274,9.577-16.548,14.337-24.878Q50.209-31.489,43.012-43.9Z" transform="translate(0 43.9)"/></g><g transform="translate(215.272 99.443)"><path class="b" d="M43.012-43.9H14.337C9.577-35.626,4.76-27.352,0-19.079,4.76-10.8,9.577-2.531,14.337,5.8H43.012c4.76-8.274,9.577-16.548,14.337-24.878Q50.209-31.489,43.012-43.9Z" transform="translate(0 43.9)"/></g><g transform="translate(172.193 24.841)"><path class="b" d="M43.012-43.9H14.337C9.577-35.626,4.76-27.352,0-19.079,4.76-10.8,9.577-2.531,14.337,5.8H43.012c4.76-8.274,9.577-16.548,14.337-24.878Q50.209-31.489,43.012-43.9Z" transform="translate(0 43.9)"/></g><g transform="translate(215.272 49.761)"><path class="b" d="M43.012-43.9H14.337C9.577-35.626,4.76-27.352,0-19.079,4.76-10.8,9.577-2.531,14.337,5.8H43.012c4.76-8.274,9.577-16.548,14.337-24.878Q50.209-31.489,43.012-43.9Z" transform="translate(0 43.9)"/></g><g transform="translate(215.272)"><path class="b" d="M43.012-43.9H14.337C9.577-35.626,4.76-27.352,0-19.079,4.76-10.8,9.577-2.531,14.337,5.8H43.012c4.76-8.274,9.577-16.548,14.337-24.878Q50.209-31.489,43.012-43.9Z" transform="translate(0 43.9)"/></g><g transform="translate(258.259 173.898)"><path class="b" d="M43.012-43.9H14.337C9.577-35.626,4.76-27.352,0-19.079,4.76-10.8,9.577-2.531,14.337,5.8H43.012c4.76-8.274,9.577-16.548,14.337-24.878Q50.209-31.489,43.012-43.9Z" transform="translate(0 43.9)"/></g><g transform="translate(258.259 124.137)"><path class="b" d="M43.012-43.9H14.337C9.577-35.626,4.76-27.352,0-19.079,4.76-10.8,9.577-2.531,14.337,5.8H43.012c4.76-8.274,9.577-16.548,14.337-24.878Q50.209-31.489,43.012-43.9Z" transform="translate(0 43.9)"/></g><g transform="translate(258.259 74.522)"><path class="b" d="M43.012-43.9H14.337C9.577-35.626,4.76-27.352,0-19.079,4.76-10.8,9.577-2.531,14.337,5.8H43.012c4.76-8.274,9.577-16.548,14.337-24.878Q50.209-31.489,43.012-43.9Z" transform="translate(0 43.9)"/></g><g transform="translate(301.338 198.819)"><path class="b" d="M43.012-43.9H14.337C9.577-35.626,4.76-27.352,0-19.079,4.76-10.8,9.577-2.531,14.337,5.8H43.012c4.76-8.274,9.577-16.548,14.337-24.878Q50.209-31.489,43.012-43.9Z" transform="translate(0 43.9)"/></g><g transform="translate(301.338 149.057)"><path class="b" d="M43.012-43.9H14.337C9.577-35.626,4.76-27.352,0-19.079,4.76-10.8,9.577-2.531,14.337,5.8H43.012c4.76-8.274,9.577-16.548,14.337-24.878Q50.209-31.489,43.012-43.9Z" transform="translate(0 43.9)"/></g><g transform="translate(301.338 99.443)"><path class="b" d="M43.012-43.9H14.337C9.577-35.626,4.76-27.352,0-19.079,4.76-10.8,9.577-2.531,14.337,5.8H43.012c4.76-8.274,9.577-16.548,14.337-24.878Q50.209-31.489,43.012-43.9Z" transform="translate(0 43.9)"/></g><g transform="translate(258.259 24.841)"><path class="b" d="M43.012-43.9H14.337C9.577-35.626,4.76-27.352,0-19.079,4.76-10.8,9.577-2.531,14.337,5.8H43.012c4.76-8.274,9.577-16.548,14.337-24.878Q50.209-31.489,43.012-43.9Z" transform="translate(0 43.9)"/></g><g transform="translate(301.338 49.761)"><path class="b" d="M43.012-43.9H14.337C9.577-35.626,4.76-27.352,0-19.079,4.76-10.8,9.577-2.531,14.337,5.8H43.012c4.76-8.274,9.577-16.548,14.337-24.878Q50.209-31.489,43.012-43.9Z" transform="translate(0 43.9)"/></g><g transform="translate(301.338)"><path class="b" d="M43.012-43.9H14.337C9.577-35.626,4.76-27.352,0-19.079,4.76-10.8,9.577-2.531,14.337,5.8H43.012c4.76-8.274,9.577-16.548,14.337-24.878Q50.209-31.489,43.012-43.9Z" transform="translate(0 43.9)"/></g><g transform="translate(0 173.898)"><path class="b" d="M43.012-43.9H14.337C9.577-35.626,4.76-27.352,0-19.079,4.76-10.8,9.577-2.531,14.337,5.8H43.012c4.76-8.274,9.577-16.548,14.337-24.878Q50.209-31.489,43.012-43.9Z" transform="translate(0 43.9)"/></g><g transform="translate(0 124.137)"><path class="b" d="M43.012-43.9H14.337C9.577-35.626,4.76-27.352,0-19.079,4.76-10.8,9.577-2.531,14.337,5.8H43.012c4.76-8.274,9.577-16.548,14.337-24.878Q50.209-31.489,43.012-43.9Z" transform="translate(0 43.9)"/></g><g transform="translate(0 74.522)"><path class="b" d="M43.012-43.9H14.337C9.577-35.626,4.76-27.352,0-19.079,4.76-10.8,9.577-2.531,14.337,5.8H43.012c4.76-8.274,9.577-16.548,14.337-24.878Q50.209-31.489,43.012-43.9Z" transform="translate(0 43.9)"/></g><g transform="translate(43.079 198.819)"><path class="b" d="M43.012-43.9H14.337C9.577-35.626,4.76-27.352,0-19.079,4.76-10.8,9.577-2.531,14.337,5.8H43.012c4.76-8.274,9.577-16.548,14.337-24.878Q50.209-31.489,43.012-43.9Z" transform="translate(0 43.9)"/></g><g transform="translate(43.079 149.057)"><path class="b" d="M43.012-43.9H14.337C9.577-35.626,4.76-27.352,0-19.079,4.76-10.8,9.577-2.531,14.337,5.8H43.012c4.76-8.274,9.577-16.548,14.337-24.878Q50.209-31.489,43.012-43.9Z" transform="translate(0 43.9)"/></g><g transform="translate(43.079 99.443)"><path class="b" d="M43.012-43.9H14.337C9.577-35.626,4.76-27.352,0-19.079,4.76-10.8,9.577-2.531,14.337,5.8H43.012c4.76-8.274,9.577-16.548,14.337-24.878Q50.209-31.489,43.012-43.9Z" transform="translate(0 43.9)"/></g><g transform="translate(0 24.841)"><path class="b" d="M43.012-43.9H14.337C9.577-35.626,4.76-27.352,0-19.079,4.76-10.8,9.577-2.531,14.337,5.8H43.012c4.76-8.274,9.577-16.548,14.337-24.878Q50.209-31.489,43.012-43.9Z" transform="translate(0 43.9)"/></g><g transform="translate(43.079 49.761)"><path class="b" d="M43.012-43.9H14.337C9.577-35.626,4.76-27.352,0-19.079,4.76-10.8,9.577-2.531,14.337,5.8H43.012c4.76-8.274,9.577-16.548,14.337-24.878Q50.209-31.489,43.012-43.9Z" transform="translate(0 43.9)"/></g><g transform="translate(43.079)"><path class="b" d="M43.012-43.9H14.337C9.577-35.626,4.76-27.352,0-19.079,4.76-10.8,9.577-2.531,14.337,5.8H43.012c4.76-8.274,9.577-16.548,14.337-24.878Q50.209-31.489,43.012-43.9Z" transform="translate(0 43.9)"/></g><g transform="translate(86.065 173.898)"><path class="b" d="M43.012-43.9H14.337C9.577-35.626,4.76-27.352,0-19.079,4.76-10.8,9.577-2.531,14.337,5.8H43.012c4.76-8.274,9.577-16.548,14.337-24.878Q50.209-31.489,43.012-43.9Z" transform="translate(0 43.9)"/></g><g transform="translate(86.065 124.137)"><path class="b" d="M43.012-43.9H14.337C9.577-35.626,4.76-27.352,0-19.079,4.76-10.8,9.577-2.531,14.337,5.8H43.012c4.76-8.274,9.577-16.548,14.337-24.878Q50.209-31.489,43.012-43.9Z" transform="translate(0 43.9)"/></g><g transform="translate(86.065 74.522)"><path class="b" d="M43.012-43.9H14.337C9.577-35.626,4.76-27.352,0-19.079,4.76-10.8,9.577-2.531,14.337,5.8H43.012c4.76-8.274,9.577-16.548,14.337-24.878Q50.209-31.489,43.012-43.9Z" transform="translate(0 43.9)"/></g><g transform="translate(129.145 198.819)"><path class="b" d="M43.012-43.9H14.337C9.577-35.626,4.76-27.352,0-19.079,4.76-10.8,9.577-2.531,14.337,5.8H43.012c4.76-8.274,9.577-16.548,14.337-24.878Q50.209-31.489,43.012-43.9Z" transform="translate(0 43.9)"/></g><g transform="translate(129.145 149.057)"><path class="b" d="M43.012-43.9H14.337C9.577-35.626,4.76-27.352,0-19.079,4.76-10.8,9.577-2.531,14.337,5.8H43.012c4.76-8.274,9.577-16.548,14.337-24.878Q50.209-31.489,43.012-43.9Z" transform="translate(0 43.9)"/></g><g transform="translate(129.145 99.443)"><path class="b" d="M43.012-43.9H14.337C9.577-35.626,4.76-27.352,0-19.079,4.76-10.8,9.577-2.531,14.337,5.8H43.012c4.76-8.274,9.577-16.548,14.337-24.878Q50.209-31.489,43.012-43.9Z" transform="translate(0 43.9)"/></g><g transform="translate(86.065 24.841)"><path class="b" d="M43.012-43.9H14.337C9.577-35.626,4.76-27.352,0-19.079,4.76-10.8,9.577-2.531,14.337,5.8H43.012c4.76-8.274,9.577-16.548,14.337-24.878Q50.209-31.489,43.012-43.9Z" transform="translate(0 43.9)"/></g><g transform="translate(129.145 49.761)"><path class="b" d="M43.012-43.9H14.337C9.577-35.626,4.76-27.352,0-19.079,4.76-10.8,9.577-2.531,14.337,5.8H43.012c4.76-8.274,9.577-16.548,14.337-24.878Q50.209-31.489,43.012-43.9Z" transform="translate(0 43.9)"/></g><g transform="translate(129.145)"><path class="b" d="M43.012-43.9H14.337C9.577-35.626,4.76-27.352,0-19.079,4.76-10.8,9.577-2.531,14.337,5.8H43.012c4.76-8.274,9.577-16.548,14.337-24.878Q50.209-31.489,43.012-43.9Z" transform="translate(0 43.9)"/></g><g transform="translate(172.193 472.098)"><path class="b" d="M43.012-43.9H14.337C9.577-35.626,4.76-27.352,0-19.079,4.76-10.8,9.577-2.531,14.337,5.8H43.012c4.76-8.274,9.577-16.548,14.337-24.878Q50.209-31.489,43.012-43.9Z" transform="translate(0 43.9)"/></g><g transform="translate(172.193 422.337)"><path class="b" d="M43.012-43.9H14.337C9.577-35.626,4.76-27.352,0-19.079,4.76-10.8,9.577-2.531,14.337,5.8H43.012c4.76-8.274,9.577-16.548,14.337-24.878Q50.209-31.489,43.012-43.9Z" transform="translate(0 43.9)"/></g><g transform="translate(172.193 372.722)"><path class="b" d="M43.012-43.9H14.337C9.577-35.626,4.76-27.352,0-19.079,4.76-10.8,9.577-2.531,14.337,5.8H43.012c4.76-8.274,9.577-16.548,14.337-24.878Q50.209-31.489,43.012-43.9Z" transform="translate(0 43.9)"/></g><g transform="translate(215.272 497.018)"><path class="b" d="M43.012-43.9H14.337C9.577-35.626,4.76-27.352,0-19.079,4.76-10.8,9.577-2.531,14.337,5.8H43.012c4.76-8.274,9.577-16.548,14.337-24.878Q50.209-31.489,43.012-43.9Z" transform="translate(0 43.9)"/></g><g transform="translate(215.272 447.257)"><path class="b" d="M43.012-43.9H14.337C9.577-35.626,4.76-27.352,0-19.079,4.76-10.8,9.577-2.531,14.337,5.8H43.012c4.76-8.274,9.577-16.548,14.337-24.878Q50.209-31.489,43.012-43.9Z" transform="translate(0 43.9)"/></g><g transform="translate(215.272 397.643)"><path class="b" d="M43.012-43.9H14.337C9.577-35.626,4.76-27.352,0-19.079,4.76-10.8,9.577-2.531,14.337,5.8H43.012c4.76-8.274,9.577-16.548,14.337-24.878Q50.209-31.489,43.012-43.9Z" transform="translate(0 43.9)"/></g><g transform="translate(172.193 323.04)"><path class="b" d="M43.012-43.9H14.337C9.577-35.626,4.76-27.352,0-19.079,4.76-10.8,9.577-2.531,14.337,5.8H43.012c4.76-8.274,9.577-16.548,14.337-24.878Q50.209-31.489,43.012-43.9Z" transform="translate(0 43.9)"/></g><g transform="translate(172.193 273.279)"><path class="b" d="M43.012-43.9H14.337C9.577-35.626,4.76-27.352,0-19.079,4.76-10.8,9.577-2.531,14.337,5.8H43.012c4.76-8.274,9.577-16.548,14.337-24.878Q50.209-31.489,43.012-43.9Z" transform="translate(0 43.9)"/></g><g transform="translate(172.193 223.664)"><path class="b" d="M43.012-43.9H14.337C9.577-35.626,4.76-27.352,0-19.079,4.76-10.8,9.577-2.531,14.337,5.8H43.012c4.76-8.274,9.577-16.548,14.337-24.878Q50.209-31.489,43.012-43.9Z" transform="translate(0 43.9)"/></g><g transform="translate(215.272 347.96)"><path class="b" d="M43.012-43.9H14.337C9.577-35.626,4.76-27.352,0-19.079,4.76-10.8,9.577-2.531,14.337,5.8H43.012c4.76-8.274,9.577-16.548,14.337-24.878Q50.209-31.489,43.012-43.9Z" transform="translate(0 43.9)"/></g><g transform="translate(215.272 298.2)"><path class="b" d="M43.012-43.9H14.337C9.577-35.626,4.76-27.352,0-19.079,4.76-10.8,9.577-2.531,14.337,5.8H43.012c4.76-8.274,9.577-16.548,14.337-24.878Q50.209-31.489,43.012-43.9Z" transform="translate(0 43.9)"/></g><g transform="translate(215.272 248.586)"><path class="b" d="M43.012-43.9H14.337C9.577-35.626,4.76-27.352,0-19.079,4.76-10.8,9.577-2.531,14.337,5.8H43.012c4.76-8.274,9.577-16.548,14.337-24.878Q50.209-31.489,43.012-43.9Z" transform="translate(0 43.9)"/></g><g transform="translate(258.259 472.098)"><path class="b" d="M43.012-43.9H14.337C9.577-35.626,4.76-27.352,0-19.079,4.76-10.8,9.577-2.531,14.337,5.8H43.012c4.76-8.274,9.577-16.548,14.337-24.878Q50.209-31.489,43.012-43.9Z" transform="translate(0 43.9)"/></g><g transform="translate(258.259 422.337)"><path class="b" d="M43.012-43.9H14.337C9.577-35.626,4.76-27.352,0-19.079,4.76-10.8,9.577-2.531,14.337,5.8H43.012c4.76-8.274,9.577-16.548,14.337-24.878Q50.209-31.489,43.012-43.9Z" transform="translate(0 43.9)"/></g><g transform="translate(258.259 372.722)"><path class="b" d="M43.012-43.9H14.337C9.577-35.626,4.76-27.352,0-19.079,4.76-10.8,9.577-2.531,14.337,5.8H43.012c4.76-8.274,9.577-16.548,14.337-24.878Q50.209-31.489,43.012-43.9Z" transform="translate(0 43.9)"/></g><g transform="translate(301.338 497.018)"><path class="b" d="M43.012-43.9H14.337C9.577-35.626,4.76-27.352,0-19.079,4.76-10.8,9.577-2.531,14.337,5.8H43.012c4.76-8.274,9.577-16.548,14.337-24.878Q50.209-31.489,43.012-43.9Z" transform="translate(0 43.9)"/></g><g transform="translate(301.338 447.257)"><path class="b" d="M43.012-43.9H14.337C9.577-35.626,4.76-27.352,0-19.079,4.76-10.8,9.577-2.531,14.337,5.8H43.012c4.76-8.274,9.577-16.548,14.337-24.878Q50.209-31.489,43.012-43.9Z" transform="translate(0 43.9)"/></g><g transform="translate(301.338 397.643)"><path class="b" d="M43.012-43.9H14.337C9.577-35.626,4.76-27.352,0-19.079,4.76-10.8,9.577-2.531,14.337,5.8H43.012c4.76-8.274,9.577-16.548,14.337-24.878Q50.209-31.489,43.012-43.9Z" transform="translate(0 43.9)"/></g><g transform="translate(258.259 323.04)"><path class="b" d="M43.012-43.9H14.337C9.577-35.626,4.76-27.352,0-19.079,4.76-10.8,9.577-2.531,14.337,5.8H43.012c4.76-8.274,9.577-16.548,14.337-24.878Q50.209-31.489,43.012-43.9Z" transform="translate(0 43.9)"/></g><g transform="translate(258.259 273.279)"><path class="b" d="M43.012-43.9H14.337C9.577-35.626,4.76-27.352,0-19.079,4.76-10.8,9.577-2.531,14.337,5.8H43.012c4.76-8.274,9.577-16.548,14.337-24.878Q50.209-31.489,43.012-43.9Z" transform="translate(0 43.9)"/></g><g transform="translate(258.259 223.664)"><path class="b" d="M43.012-43.9H14.337C9.577-35.626,4.76-27.352,0-19.079,4.76-10.8,9.577-2.531,14.337,5.8H43.012c4.76-8.274,9.577-16.548,14.337-24.878Q50.209-31.489,43.012-43.9Z" transform="translate(0 43.9)"/></g><g transform="translate(301.338 347.96)"><path class="b" d="M43.012-43.9H14.337C9.577-35.626,4.76-27.352,0-19.079,4.76-10.8,9.577-2.531,14.337,5.8H43.012c4.76-8.274,9.577-16.548,14.337-24.878Q50.209-31.489,43.012-43.9Z" transform="translate(0 43.9)"/></g><g transform="translate(301.338 298.2)"><path class="b" d="M43.012-43.9H14.337C9.577-35.626,4.76-27.352,0-19.079,4.76-10.8,9.577-2.531,14.337,5.8H43.012c4.76-8.274,9.577-16.548,14.337-24.878Q50.209-31.489,43.012-43.9Z" transform="translate(0 43.9)"/></g><g transform="translate(301.338 248.586)"><path class="b" d="M43.012-43.9H14.337C9.577-35.626,4.76-27.352,0-19.079,4.76-10.8,9.577-2.531,14.337,5.8H43.012c4.76-8.274,9.577-16.548,14.337-24.878Q50.209-31.489,43.012-43.9Z" transform="translate(0 43.9)"/></g><g transform="translate(0 472.098)"><path class="b" d="M43.012-43.9H14.337C9.577-35.626,4.76-27.352,0-19.079,4.76-10.8,9.577-2.531,14.337,5.8H43.012c4.76-8.274,9.577-16.548,14.337-24.878Q50.209-31.489,43.012-43.9Z" transform="translate(0 43.9)"/></g><g transform="translate(0 422.337)"><path class="b" d="M43.012-43.9H14.337C9.577-35.626,4.76-27.352,0-19.079,4.76-10.8,9.577-2.531,14.337,5.8H43.012c4.76-8.274,9.577-16.548,14.337-24.878Q50.209-31.489,43.012-43.9Z" transform="translate(0 43.9)"/></g><g transform="translate(0 372.722)"><path class="b" d="M43.012-43.9H14.337C9.577-35.626,4.76-27.352,0-19.079,4.76-10.8,9.577-2.531,14.337,5.8H43.012c4.76-8.274,9.577-16.548,14.337-24.878Q50.209-31.489,43.012-43.9Z" transform="translate(0 43.9)"/></g><g transform="translate(43.079 497.018)"><path class="b" d="M43.012-43.9H14.337C9.577-35.626,4.76-27.352,0-19.079,4.76-10.8,9.577-2.531,14.337,5.8H43.012c4.76-8.274,9.577-16.548,14.337-24.878Q50.209-31.489,43.012-43.9Z" transform="translate(0 43.9)"/></g><g transform="translate(43.079 447.257)"><path class="b" d="M43.012-43.9H14.337C9.577-35.626,4.76-27.352,0-19.079,4.76-10.8,9.577-2.531,14.337,5.8H43.012c4.76-8.274,9.577-16.548,14.337-24.878Q50.209-31.489,43.012-43.9Z" transform="translate(0 43.9)"/></g><g transform="translate(43.079 397.643)"><path class="b" d="M43.012-43.9H14.337C9.577-35.626,4.76-27.352,0-19.079,4.76-10.8,9.577-2.531,14.337,5.8H43.012c4.76-8.274,9.577-16.548,14.337-24.878Q50.209-31.489,43.012-43.9Z" transform="translate(0 43.9)"/></g><g transform="translate(0 323.04)"><path class="b" d="M43.012-43.9H14.337C9.577-35.626,4.76-27.352,0-19.079,4.76-10.8,9.577-2.531,14.337,5.8H43.012c4.76-8.274,9.577-16.548,14.337-24.878Q50.209-31.489,43.012-43.9Z" transform="translate(0 43.9)"/></g><g transform="translate(0 273.279)"><path class="b" d="M43.012-43.9H14.337C9.577-35.626,4.76-27.352,0-19.079,4.76-10.8,9.577-2.531,14.337,5.8H43.012c4.76-8.274,9.577-16.548,14.337-24.878Q50.209-31.489,43.012-43.9Z" transform="translate(0 43.9)"/></g><g transform="translate(0 223.664)"><path class="b" d="M43.012-43.9H14.337C9.577-35.626,4.76-27.352,0-19.079,4.76-10.8,9.577-2.531,14.337,5.8H43.012c4.76-8.274,9.577-16.548,14.337-24.878Q50.209-31.489,43.012-43.9Z" transform="translate(0 43.9)"/></g><g transform="translate(43.079 347.96)"><path class="b" d="M43.012-43.9H14.337C9.577-35.626,4.76-27.352,0-19.079,4.76-10.8,9.577-2.531,14.337,5.8H43.012c4.76-8.274,9.577-16.548,14.337-24.878Q50.209-31.489,43.012-43.9Z" transform="translate(0 43.9)"/></g><g transform="translate(43.079 298.2)"><path class="b" d="M43.012-43.9H14.337C9.577-35.626,4.76-27.352,0-19.079,4.76-10.8,9.577-2.531,14.337,5.8H43.012c4.76-8.274,9.577-16.548,14.337-24.878Q50.209-31.489,43.012-43.9Z" transform="translate(0 43.9)"/></g><g transform="translate(43.079 248.586)"><path class="b" d="M43.012-43.9H14.337C9.577-35.626,4.76-27.352,0-19.079,4.76-10.8,9.577-2.531,14.337,5.8H43.012c4.76-8.274,9.577-16.548,14.337-24.878Q50.209-31.489,43.012-43.9Z" transform="translate(0 43.9)"/></g><g transform="translate(86.065 472.098)"><path class="b" d="M43.012-43.9H14.337C9.577-35.626,4.76-27.352,0-19.079,4.76-10.8,9.577-2.531,14.337,5.8H43.012c4.76-8.274,9.577-16.548,14.337-24.878Q50.209-31.489,43.012-43.9Z" transform="translate(0 43.9)"/></g><g transform="translate(86.065 422.337)"><path class="b" d="M43.012-43.9H14.337C9.577-35.626,4.76-27.352,0-19.079,4.76-10.8,9.577-2.531,14.337,5.8H43.012c4.76-8.274,9.577-16.548,14.337-24.878Q50.209-31.489,43.012-43.9Z" transform="translate(0 43.9)"/></g><g transform="translate(86.065 372.722)"><path class="b" d="M43.012-43.9H14.337C9.577-35.626,4.76-27.352,0-19.079,4.76-10.8,9.577-2.531,14.337,5.8H43.012c4.76-8.274,9.577-16.548,14.337-24.878Q50.209-31.489,43.012-43.9Z" transform="translate(0 43.9)"/></g><g transform="translate(129.145 497.018)"><path class="b" d="M43.012-43.9H14.337C9.577-35.626,4.76-27.352,0-19.079,4.76-10.8,9.577-2.531,14.337,5.8H43.012c4.76-8.274,9.577-16.548,14.337-24.878Q50.209-31.489,43.012-43.9Z" transform="translate(0 43.9)"/></g><g transform="translate(129.145 447.257)"><path class="b" d="M43.012-43.9H14.337C9.577-35.626,4.76-27.352,0-19.079,4.76-10.8,9.577-2.531,14.337,5.8H43.012c4.76-8.274,9.577-16.548,14.337-24.878Q50.209-31.489,43.012-43.9Z" transform="translate(0 43.9)"/></g><g transform="translate(129.145 397.643)"><path class="b" d="M43.012-43.9H14.337C9.577-35.626,4.76-27.352,0-19.079,4.76-10.8,9.577-2.531,14.337,5.8H43.012c4.76-8.274,9.577-16.548,14.337-24.878Q50.209-31.489,43.012-43.9Z" transform="translate(0 43.9)"/></g><g transform="translate(86.065 323.04)"><path class="b" d="M43.012-43.9H14.337C9.577-35.626,4.76-27.352,0-19.079,4.76-10.8,9.577-2.531,14.337,5.8H43.012c4.76-8.274,9.577-16.548,14.337-24.878Q50.209-31.489,43.012-43.9Z" transform="translate(0 43.9)"/></g><g transform="translate(86.065 273.279)"><path class="b" d="M43.012-43.9H14.337C9.577-35.626,4.76-27.352,0-19.079,4.76-10.8,9.577-2.531,14.337,5.8H43.012c4.76-8.274,9.577-16.548,14.337-24.878Q50.209-31.489,43.012-43.9Z" transform="translate(0 43.9)"/></g><g transform="translate(86.065 223.664)"><path class="b" d="M43.012-43.9H14.337C9.577-35.626,4.76-27.352,0-19.079,4.76-10.8,9.577-2.531,14.337,5.8H43.012c4.76-8.274,9.577-16.548,14.337-24.878Q50.209-31.489,43.012-43.9Z" transform="translate(0 43.9)"/></g><g transform="translate(129.145 347.96)"><path class="b" d="M43.012-43.9H14.337C9.577-35.626,4.76-27.352,0-19.079,4.76-10.8,9.577-2.531,14.337,5.8H43.012c4.76-8.274,9.577-16.548,14.337-24.878Q50.209-31.489,43.012-43.9Z" transform="translate(0 43.9)"/></g><g transform="translate(129.145 298.2)"><path class="b" d="M43.012-43.9H14.337C9.577-35.626,4.76-27.352,0-19.079,4.76-10.8,9.577-2.531,14.337,5.8H43.012c4.76-8.274,9.577-16.548,14.337-24.878Q50.209-31.489,43.012-43.9Z" transform="translate(0 43.9)"/></g><g transform="translate(129.145 248.586)"><path class="b" d="M43.012-43.9H14.337C9.577-35.626,4.76-27.352,0-19.079,4.76-10.8,9.577-2.531,14.337,5.8H43.012c4.76-8.274,9.577-16.548,14.337-24.878Q50.209-31.489,43.012-43.9Z" transform="translate(0 43.9)"/></g></g></g><g transform="translate(1107.326 0)"><g transform="translate(0 0)"><g transform="translate(86.066 173.898)"><path class="b" d="M14.337-43.9H43.012c4.76,8.274,9.577,16.548,14.337,24.821C52.589-10.8,47.773-2.531,43.012,5.8H14.337C9.577-2.531,4.76-10.8,0-19.079,4.76-27.352,9.577-35.626,14.337-43.9Z" transform="translate(0 43.9)"/></g><g transform="translate(86.066 124.137)"><path class="b" d="M14.337-43.9H43.012c4.76,8.274,9.577,16.548,14.337,24.821C52.589-10.8,47.773-2.531,43.012,5.8H14.337C9.577-2.531,4.76-10.8,0-19.079,4.76-27.352,9.577-35.626,14.337-43.9Z" transform="translate(0 43.9)"/></g><g transform="translate(86.066 74.522)"><path class="b" d="M14.337-43.9H43.012c4.76,8.274,9.577,16.548,14.337,24.821C52.589-10.8,47.773-2.531,43.012,5.8H14.337C9.577-2.531,4.76-10.8,0-19.079,4.76-27.352,9.577-35.626,14.337-43.9Z" transform="translate(0 43.9)"/></g><g transform="translate(42.987 198.819)"><path class="b" d="M14.337-43.9H43.012c4.76,8.274,9.577,16.548,14.337,24.821C52.589-10.8,47.773-2.531,43.012,5.8H14.337C9.577-2.531,4.76-10.8,0-19.079,4.76-27.352,9.577-35.626,14.337-43.9Z" transform="translate(0 43.9)"/></g><g transform="translate(42.987 149.057)"><path class="b" d="M14.337-43.9H43.012c4.76,8.274,9.577,16.548,14.337,24.821C52.589-10.8,47.773-2.531,43.012,5.8H14.337C9.577-2.531,4.76-10.8,0-19.079,4.76-27.352,9.577-35.626,14.337-43.9Z" transform="translate(0 43.9)"/></g><g transform="translate(42.987 99.443)"><path class="b" d="M14.337-43.9H43.012c4.76,8.274,9.577,16.548,14.337,24.821C52.589-10.8,47.773-2.531,43.012,5.8H14.337C9.577-2.531,4.76-10.8,0-19.079,4.76-27.352,9.577-35.626,14.337-43.9Z" transform="translate(0 43.9)"/></g><g transform="translate(86.066 24.841)"><path class="b" d="M14.337-43.9H43.012c4.76,8.274,9.577,16.548,14.337,24.821C52.589-10.8,47.773-2.531,43.012,5.8H14.337C9.577-2.531,4.76-10.8,0-19.079,4.76-27.352,9.577-35.626,14.337-43.9Z" transform="translate(0 43.9)"/></g><g transform="translate(42.987 49.761)"><path class="b" d="M14.337-43.9H43.012c4.76,8.274,9.577,16.548,14.337,24.821C52.589-10.8,47.773-2.531,43.012,5.8H14.337C9.577-2.531,4.76-10.8,0-19.079,4.76-27.352,9.577-35.626,14.337-43.9Z" transform="translate(0 43.9)"/></g><g transform="translate(42.987)"><path class="b" d="M14.337-43.9H43.012c4.76,8.274,9.577,16.548,14.337,24.821C52.589-10.8,47.773-2.531,43.012,5.8H14.337C9.577-2.531,4.76-10.8,0-19.079,4.76-27.352,9.577-35.626,14.337-43.9Z" transform="translate(0 43.9)"/></g><g transform="translate(0 124.137)"><path class="b" d="M14.337-43.9H43.012c4.76,8.274,9.577,16.548,14.337,24.821C52.589-10.8,47.773-2.531,43.012,5.8H14.337C9.577-2.531,4.76-10.8,0-19.079,4.76-27.352,9.577-35.626,14.337-43.9Z" transform="translate(0 43.9)"/></g><g transform="translate(0 74.522)"><path class="b" d="M14.337-43.9H43.012c4.76,8.274,9.577,16.548,14.337,24.821C52.589-10.8,47.773-2.531,43.012,5.8H14.337C9.577-2.531,4.76-10.8,0-19.079,4.76-27.352,9.577-35.626,14.337-43.9Z" transform="translate(0 43.9)"/></g><g transform="translate(0 24.841)"><path class="b" d="M14.337-43.9H43.012c4.76,8.274,9.577,16.548,14.337,24.821C52.589-10.8,47.773-2.531,43.012,5.8H14.337C9.577-2.531,4.76-10.8,0-19.079,4.76-27.352,9.577-35.626,14.337-43.9Z" transform="translate(0 43.9)"/></g><g transform="translate(86.066 472.098)"><path class="b" d="M14.337-43.9H43.012c4.76,8.274,9.577,16.548,14.337,24.821C52.589-10.8,47.773-2.531,43.012,5.8H14.337C9.577-2.531,4.76-10.8,0-19.079,4.76-27.352,9.577-35.626,14.337-43.9Z" transform="translate(0 43.9)"/></g><g transform="translate(86.066 422.337)"><path class="b" d="M14.337-43.9H43.012c4.76,8.274,9.577,16.548,14.337,24.821C52.589-10.8,47.773-2.531,43.012,5.8H14.337C9.577-2.531,4.76-10.8,0-19.079,4.76-27.352,9.577-35.626,14.337-43.9Z" transform="translate(0 43.9)"/></g><g transform="translate(86.066 372.722)"><path class="b" d="M14.337-43.9H43.012c4.76,8.274,9.577,16.548,14.337,24.821C52.589-10.8,47.773-2.531,43.012,5.8H14.337C9.577-2.531,4.76-10.8,0-19.079,4.76-27.352,9.577-35.626,14.337-43.9Z" transform="translate(0 43.9)"/></g><g transform="translate(42.987 497.018)"><path class="b" d="M14.337-43.9H43.012c4.76,8.274,9.577,16.548,14.337,24.821C52.589-10.8,47.773-2.531,43.012,5.8H14.337C9.577-2.531,4.76-10.8,0-19.079,4.76-27.352,9.577-35.626,14.337-43.9Z" transform="translate(0 43.9)"/></g><g transform="translate(42.987 447.257)"><path class="b" d="M14.337-43.9H43.012c4.76,8.274,9.577,16.548,14.337,24.821C52.589-10.8,47.773-2.531,43.012,5.8H14.337C9.577-2.531,4.76-10.8,0-19.079,4.76-27.352,9.577-35.626,14.337-43.9Z" transform="translate(0 43.9)"/></g><g transform="translate(42.987 397.643)"><path class="b" d="M14.337-43.9H43.012c4.76,8.274,9.577,16.548,14.337,24.821C52.589-10.8,47.773-2.531,43.012,5.8H14.337C9.577-2.531,4.76-10.8,0-19.079,4.76-27.352,9.577-35.626,14.337-43.9Z" transform="translate(0 43.9)"/></g><g transform="translate(86.066 323.04)"><path class="b" d="M14.337-43.9H43.012c4.76,8.274,9.577,16.548,14.337,24.821C52.589-10.8,47.773-2.531,43.012,5.8H14.337C9.577-2.531,4.76-10.8,0-19.079,4.76-27.352,9.577-35.626,14.337-43.9Z" transform="translate(0 43.9)"/></g><g transform="translate(86.066 273.279)"><path class="b" d="M14.337-43.9H43.012c4.76,8.274,9.577,16.548,14.337,24.821C52.589-10.8,47.773-2.531,43.012,5.8H14.337C9.577-2.531,4.76-10.8,0-19.079,4.76-27.352,9.577-35.626,14.337-43.9Z" transform="translate(0 43.9)"/></g><g transform="translate(86.066 223.664)"><path class="b" d="M14.337-43.9H43.012c4.76,8.274,9.577,16.548,14.337,24.821C52.589-10.8,47.773-2.531,43.012,5.8H14.337C9.577-2.531,4.76-10.8,0-19.079,4.76-27.352,9.577-35.626,14.337-43.9Z" transform="translate(0 43.9)"/></g><g transform="translate(42.987 347.96)"><path class="b" d="M14.337-43.9H43.012c4.76,8.274,9.577,16.548,14.337,24.821C52.589-10.8,47.773-2.531,43.012,5.8H14.337C9.577-2.531,4.76-10.8,0-19.079,4.76-27.352,9.577-35.626,14.337-43.9Z" transform="translate(0 43.9)"/></g><g transform="translate(42.987 298.199)"><path class="b" d="M14.337-43.9H43.012c4.76,8.274,9.577,16.548,14.337,24.821C52.589-10.8,47.773-2.531,43.012,5.8H14.337C9.577-2.531,4.76-10.8,0-19.079,4.76-27.352,9.577-35.626,14.337-43.9Z" transform="translate(0 43.9)"/></g><g transform="translate(0 472.098)"><path class="b" d="M14.337-43.9H43.012c4.76,8.274,9.577,16.548,14.337,24.821C52.589-10.8,47.773-2.531,43.012,5.8H14.337C9.577-2.531,4.76-10.8,0-19.079,4.76-27.352,9.577-35.626,14.337-43.9Z" transform="translate(0 43.9)"/></g><g transform="translate(0 422.337)"><path class="b" d="M14.337-43.9H43.012c4.76,8.274,9.577,16.548,14.337,24.821C52.589-10.8,47.773-2.531,43.012,5.8H14.337C9.577-2.531,4.76-10.8,0-19.079,4.76-27.352,9.577-35.626,14.337-43.9Z" transform="translate(0 43.9)"/></g><g transform="translate(0 372.722)"><path class="b" d="M14.337-43.9H43.012c4.76,8.274,9.577,16.548,14.337,24.821C52.589-10.8,47.773-2.531,43.012,5.8H14.337C9.577-2.531,4.76-10.8,0-19.079,4.76-27.352,9.577-35.626,14.337-43.9Z" transform="translate(0 43.9)"/></g><g transform="translate(258.167 173.898)"><path class="b" d="M14.337-43.9H43.012c4.76,8.274,9.577,16.548,14.337,24.821C52.589-10.8,47.773-2.531,43.012,5.8H14.337C9.577-2.531,4.76-10.8,0-19.079,4.76-27.352,9.577-35.626,14.337-43.9Z" transform="translate(0 43.9)"/></g><g transform="translate(258.167 124.137)"><path class="b" d="M14.337-43.9H43.012c4.76,8.274,9.577,16.548,14.337,24.821C52.589-10.8,47.773-2.531,43.012,5.8H14.337C9.577-2.531,4.76-10.8,0-19.079,4.76-27.352,9.577-35.626,14.337-43.9Z" transform="translate(0 43.9)"/></g><g transform="translate(258.167 74.522)"><path class="b" d="M14.337-43.9H43.012c4.76,8.274,9.577,16.548,14.337,24.821C52.589-10.8,47.773-2.531,43.012,5.8H14.337C9.577-2.531,4.76-10.8,0-19.079,4.76-27.352,9.577-35.626,14.337-43.9Z" transform="translate(0 43.9)"/></g><g transform="translate(215.088 198.819)"><path class="b" d="M14.337-43.9H43.012c4.76,8.274,9.577,16.548,14.337,24.821C52.589-10.8,47.773-2.531,43.012,5.8H14.337C9.577-2.531,4.76-10.8,0-19.079,4.76-27.352,9.577-35.626,14.337-43.9Z" transform="translate(0 43.9)"/></g><g transform="translate(215.088 149.057)"><path class="b" d="M14.337-43.9H43.012c4.76,8.274,9.577,16.548,14.337,24.821C52.589-10.8,47.773-2.531,43.012,5.8H14.337C9.577-2.531,4.76-10.8,0-19.079,4.76-27.352,9.577-35.626,14.337-43.9Z" transform="translate(0 43.9)"/></g><g transform="translate(215.088 99.443)"><path class="b" d="M14.337-43.9H43.012c4.76,8.274,9.577,16.548,14.337,24.821C52.589-10.8,47.773-2.531,43.012,5.8H14.337C9.577-2.531,4.76-10.8,0-19.079,4.76-27.352,9.577-35.626,14.337-43.9Z" transform="translate(0 43.9)"/></g><g transform="translate(258.167 24.841)"><path class="b" d="M14.337-43.9H43.012c4.76,8.274,9.577,16.548,14.337,24.821C52.589-10.8,47.773-2.531,43.012,5.8H14.337C9.577-2.531,4.76-10.8,0-19.079,4.76-27.352,9.577-35.626,14.337-43.9Z" transform="translate(0 43.9)"/></g><g transform="translate(215.088 49.761)"><path class="b" d="M14.337-43.9H43.012c4.76,8.274,9.577,16.548,14.337,24.821C52.589-10.8,47.773-2.531,43.012,5.8H14.337C9.577-2.531,4.76-10.8,0-19.079,4.76-27.352,9.577-35.626,14.337-43.9Z" transform="translate(0 43.9)"/></g><g transform="translate(215.088)"><path class="b" d="M14.337-43.9H43.012c4.76,8.274,9.577,16.548,14.337,24.821C52.589-10.8,47.773-2.531,43.012,5.8H14.337C9.577-2.531,4.76-10.8,0-19.079,4.76-27.352,9.577-35.626,14.337-43.9Z" transform="translate(0 43.9)"/></g><g transform="translate(172.101 173.898)"><path class="b" d="M14.337-43.9H43.012c4.76,8.274,9.577,16.548,14.337,24.821C52.589-10.8,47.773-2.531,43.012,5.8H14.337C9.577-2.531,4.76-10.8,0-19.079,4.76-27.352,9.577-35.626,14.337-43.9Z" transform="translate(0 43.9)"/></g><g transform="translate(172.101 124.137)"><path class="b" d="M14.337-43.9H43.012c4.76,8.274,9.577,16.548,14.337,24.821C52.589-10.8,47.773-2.531,43.012,5.8H14.337C9.577-2.531,4.76-10.8,0-19.079,4.76-27.352,9.577-35.626,14.337-43.9Z" transform="translate(0 43.9)"/></g><g transform="translate(172.101 74.522)"><path class="b" d="M14.337-43.9H43.012c4.76,8.274,9.577,16.548,14.337,24.821C52.589-10.8,47.773-2.531,43.012,5.8H14.337C9.577-2.531,4.76-10.8,0-19.079,4.76-27.352,9.577-35.626,14.337-43.9Z" transform="translate(0 43.9)"/></g><g transform="translate(129.022 198.819)"><path class="b" d="M14.337-43.9H43.012c4.76,8.274,9.577,16.548,14.337,24.821C52.589-10.8,47.773-2.531,43.012,5.8H14.337C9.577-2.531,4.76-10.8,0-19.079,4.76-27.352,9.577-35.626,14.337-43.9Z" transform="translate(0 43.9)"/></g><g transform="translate(129.022 149.057)"><path class="b" d="M14.337-43.9H43.012c4.76,8.274,9.577,16.548,14.337,24.821C52.589-10.8,47.773-2.531,43.012,5.8H14.337C9.577-2.531,4.76-10.8,0-19.079,4.76-27.352,9.577-35.626,14.337-43.9Z" transform="translate(0 43.9)"/></g><g transform="translate(129.022 99.443)"><path class="b" d="M14.337-43.9H43.012c4.76,8.274,9.577,16.548,14.337,24.821C52.589-10.8,47.773-2.531,43.012,5.8H14.337C9.577-2.531,4.76-10.8,0-19.079,4.76-27.352,9.577-35.626,14.337-43.9Z" transform="translate(0 43.9)"/></g><g transform="translate(172.101 24.841)"><path class="b" d="M14.337-43.9H43.012c4.76,8.274,9.577,16.548,14.337,24.821C52.589-10.8,47.773-2.531,43.012,5.8H14.337C9.577-2.531,4.76-10.8,0-19.079,4.76-27.352,9.577-35.626,14.337-43.9Z" transform="translate(0 43.9)"/></g><g transform="translate(129.022 49.761)"><path class="b" d="M14.337-43.9H43.012c4.76,8.274,9.577,16.548,14.337,24.821C52.589-10.8,47.773-2.531,43.012,5.8H14.337C9.577-2.531,4.76-10.8,0-19.079,4.76-27.352,9.577-35.626,14.337-43.9Z" transform="translate(0 43.9)"/></g><g transform="translate(129.022)"><path class="b" d="M14.337-43.9H43.012c4.76,8.274,9.577,16.548,14.337,24.821C52.589-10.8,47.773-2.531,43.012,5.8H14.337C9.577-2.531,4.76-10.8,0-19.079,4.76-27.352,9.577-35.626,14.337-43.9Z" transform="translate(0 43.9)"/></g><g transform="translate(430.36 173.898)"><path class="b" d="M14.337-43.9H43.012c4.76,8.274,9.577,16.548,14.337,24.821C52.589-10.8,47.773-2.531,43.012,5.8H14.337C9.577-2.531,4.76-10.8,0-19.079,4.76-27.352,9.577-35.626,14.337-43.9Z" transform="translate(0 43.9)"/></g><g transform="translate(430.36 124.137)"><path class="b" d="M14.337-43.9H43.012c4.76,8.274,9.577,16.548,14.337,24.821C52.589-10.8,47.773-2.531,43.012,5.8H14.337C9.577-2.531,4.76-10.8,0-19.079,4.76-27.352,9.577-35.626,14.337-43.9Z" transform="translate(0 43.9)"/></g><g transform="translate(430.36 74.522)"><path class="b" d="M14.337-43.9H43.012c4.76,8.274,9.577,16.548,14.337,24.821C52.589-10.8,47.773-2.531,43.012,5.8H14.337C9.577-2.531,4.76-10.8,0-19.079,4.76-27.352,9.577-35.626,14.337-43.9Z" transform="translate(0 43.9)"/></g><g transform="translate(387.281 198.819)"><path class="b" d="M14.337-43.9H43.012c4.76,8.274,9.577,16.548,14.337,24.821C52.589-10.8,47.773-2.531,43.012,5.8H14.337C9.577-2.531,4.76-10.8,0-19.079,4.76-27.352,9.577-35.626,14.337-43.9Z" transform="translate(0 43.9)"/></g><g transform="translate(387.281 149.057)"><path class="b" d="M14.337-43.9H43.012c4.76,8.274,9.577,16.548,14.337,24.821C52.589-10.8,47.773-2.531,43.012,5.8H14.337C9.577-2.531,4.76-10.8,0-19.079,4.76-27.352,9.577-35.626,14.337-43.9Z" transform="translate(0 43.9)"/></g><g transform="translate(387.281 99.443)"><path class="b" d="M14.337-43.9H43.012c4.76,8.274,9.577,16.548,14.337,24.821C52.589-10.8,47.773-2.531,43.012,5.8H14.337C9.577-2.531,4.76-10.8,0-19.079,4.76-27.352,9.577-35.626,14.337-43.9Z" transform="translate(0 43.9)"/></g><g transform="translate(430.36 24.841)"><path class="b" d="M14.337-43.9H43.012c4.76,8.274,9.577,16.548,14.337,24.821C52.589-10.8,47.773-2.531,43.012,5.8H14.337C9.577-2.531,4.76-10.8,0-19.079,4.76-27.352,9.577-35.626,14.337-43.9Z" transform="translate(0 43.9)"/></g><g transform="translate(387.281 49.761)"><path class="b" d="M14.337-43.9H43.012c4.76,8.274,9.577,16.548,14.337,24.821C52.589-10.8,47.773-2.531,43.012,5.8H14.337C9.577-2.531,4.76-10.8,0-19.079,4.76-27.352,9.577-35.626,14.337-43.9Z" transform="translate(0 43.9)"/></g><g transform="translate(387.281)"><path class="b" d="M14.337-43.9H43.012c4.76,8.274,9.577,16.548,14.337,24.821C52.589-10.8,47.773-2.531,43.012,5.8H14.337C9.577-2.531,4.76-10.8,0-19.079,4.76-27.352,9.577-35.626,14.337-43.9Z" transform="translate(0 43.9)"/></g><g transform="translate(344.294 173.898)"><path class="b" d="M14.337-43.9H43.012c4.76,8.274,9.577,16.548,14.337,24.821C52.589-10.8,47.773-2.531,43.012,5.8H14.337C9.577-2.531,4.76-10.8,0-19.079,4.76-27.352,9.577-35.626,14.337-43.9Z" transform="translate(0 43.9)"/></g><g transform="translate(344.294 124.137)"><path class="b" d="M14.337-43.9H43.012c4.76,8.274,9.577,16.548,14.337,24.821C52.589-10.8,47.773-2.531,43.012,5.8H14.337C9.577-2.531,4.76-10.8,0-19.079,4.76-27.352,9.577-35.626,14.337-43.9Z" transform="translate(0 43.9)"/></g><g transform="translate(344.294 74.522)"><path class="b" d="M14.337-43.9H43.012c4.76,8.274,9.577,16.548,14.337,24.821C52.589-10.8,47.773-2.531,43.012,5.8H14.337C9.577-2.531,4.76-10.8,0-19.079,4.76-27.352,9.577-35.626,14.337-43.9Z" transform="translate(0 43.9)"/></g><g transform="translate(301.215 198.819)"><path class="b" d="M14.337-43.9H43.012c4.76,8.274,9.577,16.548,14.337,24.821C52.589-10.8,47.773-2.531,43.012,5.8H14.337C9.577-2.531,4.76-10.8,0-19.079,4.76-27.352,9.577-35.626,14.337-43.9Z" transform="translate(0 43.9)"/></g><g transform="translate(301.215 149.057)"><path class="b" d="M14.337-43.9H43.012c4.76,8.274,9.577,16.548,14.337,24.821C52.589-10.8,47.773-2.531,43.012,5.8H14.337C9.577-2.531,4.76-10.8,0-19.079,4.76-27.352,9.577-35.626,14.337-43.9Z" transform="translate(0 43.9)"/></g><g transform="translate(301.215 99.443)"><path class="b" d="M14.337-43.9H43.012c4.76,8.274,9.577,16.548,14.337,24.821C52.589-10.8,47.773-2.531,43.012,5.8H14.337C9.577-2.531,4.76-10.8,0-19.079,4.76-27.352,9.577-35.626,14.337-43.9Z" transform="translate(0 43.9)"/></g><g transform="translate(344.294 24.841)"><path class="b" d="M14.337-43.9H43.012c4.76,8.274,9.577,16.548,14.337,24.821C52.589-10.8,47.773-2.531,43.012,5.8H14.337C9.577-2.531,4.76-10.8,0-19.079,4.76-27.352,9.577-35.626,14.337-43.9Z" transform="translate(0 43.9)"/></g><g transform="translate(301.215 49.761)"><path class="b" d="M14.337-43.9H43.012c4.76,8.274,9.577,16.548,14.337,24.821C52.589-10.8,47.773-2.531,43.012,5.8H14.337C9.577-2.531,4.76-10.8,0-19.079,4.76-27.352,9.577-35.626,14.337-43.9Z" transform="translate(0 43.9)"/></g><g transform="translate(301.215)"><path class="b" d="M14.337-43.9H43.012c4.76,8.274,9.577,16.548,14.337,24.821C52.589-10.8,47.773-2.531,43.012,5.8H14.337C9.577-2.531,4.76-10.8,0-19.079,4.76-27.352,9.577-35.626,14.337-43.9Z" transform="translate(0 43.9)"/></g><g transform="translate(258.167 472.098)"><path class="b" d="M14.337-43.9H43.012c4.76,8.274,9.577,16.548,14.337,24.821C52.589-10.8,47.773-2.531,43.012,5.8H14.337C9.577-2.531,4.76-10.8,0-19.079,4.76-27.352,9.577-35.626,14.337-43.9Z" transform="translate(0 43.9)"/></g><g transform="translate(258.167 422.337)"><path class="b" d="M14.337-43.9H43.012c4.76,8.274,9.577,16.548,14.337,24.821C52.589-10.8,47.773-2.531,43.012,5.8H14.337C9.577-2.531,4.76-10.8,0-19.079,4.76-27.352,9.577-35.626,14.337-43.9Z" transform="translate(0 43.9)"/></g><g transform="translate(258.167 372.722)"><path class="b" d="M14.337-43.9H43.012c4.76,8.274,9.577,16.548,14.337,24.821C52.589-10.8,47.773-2.531,43.012,5.8H14.337C9.577-2.531,4.76-10.8,0-19.079,4.76-27.352,9.577-35.626,14.337-43.9Z" transform="translate(0 43.9)"/></g><g transform="translate(215.088 497.018)"><path class="b" d="M14.337-43.9H43.012c4.76,8.274,9.577,16.548,14.337,24.821C52.589-10.8,47.773-2.531,43.012,5.8H14.337C9.577-2.531,4.76-10.8,0-19.079,4.76-27.352,9.577-35.626,14.337-43.9Z" transform="translate(0 43.9)"/></g><g transform="translate(215.088 447.257)"><path class="b" d="M14.337-43.9H43.012c4.76,8.274,9.577,16.548,14.337,24.821C52.589-10.8,47.773-2.531,43.012,5.8H14.337C9.577-2.531,4.76-10.8,0-19.079,4.76-27.352,9.577-35.626,14.337-43.9Z" transform="translate(0 43.9)"/></g><g transform="translate(215.088 397.643)"><path class="b" d="M14.337-43.9H43.012c4.76,8.274,9.577,16.548,14.337,24.821C52.589-10.8,47.773-2.531,43.012,5.8H14.337C9.577-2.531,4.76-10.8,0-19.079,4.76-27.352,9.577-35.626,14.337-43.9Z" transform="translate(0 43.9)"/></g><g transform="translate(258.167 323.04)"><path class="b" d="M14.337-43.9H43.012c4.76,8.274,9.577,16.548,14.337,24.821C52.589-10.8,47.773-2.531,43.012,5.8H14.337C9.577-2.531,4.76-10.8,0-19.079,4.76-27.352,9.577-35.626,14.337-43.9Z" transform="translate(0 43.9)"/></g><g transform="translate(258.167 273.279)"><path class="b" d="M14.337-43.9H43.012c4.76,8.274,9.577,16.548,14.337,24.821C52.589-10.8,47.773-2.531,43.012,5.8H14.337C9.577-2.531,4.76-10.8,0-19.079,4.76-27.352,9.577-35.626,14.337-43.9Z" transform="translate(0 43.9)"/></g><g transform="translate(258.167 223.664)"><path class="b" d="M14.337-43.9H43.012c4.76,8.274,9.577,16.548,14.337,24.821C52.589-10.8,47.773-2.531,43.012,5.8H14.337C9.577-2.531,4.76-10.8,0-19.079,4.76-27.352,9.577-35.626,14.337-43.9Z" transform="translate(0 43.9)"/></g><g transform="translate(215.088 347.96)"><path class="b" d="M14.337-43.9H43.012c4.76,8.274,9.577,16.548,14.337,24.821C52.589-10.8,47.773-2.531,43.012,5.8H14.337C9.577-2.531,4.76-10.8,0-19.079,4.76-27.352,9.577-35.626,14.337-43.9Z" transform="translate(0 43.9)"/></g><g transform="translate(215.088 298.199)"><path class="b" d="M14.337-43.9H43.012c4.76,8.274,9.577,16.548,14.337,24.821C52.589-10.8,47.773-2.531,43.012,5.8H14.337C9.577-2.531,4.76-10.8,0-19.079,4.76-27.352,9.577-35.626,14.337-43.9Z" transform="translate(0 43.9)"/></g><g transform="translate(215.088 248.585)"><path class="b" d="M14.337-43.9H43.012c4.76,8.274,9.577,16.548,14.337,24.821C52.589-10.8,47.773-2.531,43.012,5.8H14.337C9.577-2.531,4.76-10.8,0-19.079,4.76-27.352,9.577-35.626,14.337-43.9Z" transform="translate(0 43.9)"/></g><g transform="translate(172.101 472.098)"><path class="b" d="M14.337-43.9H43.012c4.76,8.274,9.577,16.548,14.337,24.821C52.589-10.8,47.773-2.531,43.012,5.8H14.337C9.577-2.531,4.76-10.8,0-19.079,4.76-27.352,9.577-35.626,14.337-43.9Z" transform="translate(0 43.9)"/></g><g transform="translate(172.101 422.337)"><path class="b" d="M14.337-43.9H43.012c4.76,8.274,9.577,16.548,14.337,24.821C52.589-10.8,47.773-2.531,43.012,5.8H14.337C9.577-2.531,4.76-10.8,0-19.079,4.76-27.352,9.577-35.626,14.337-43.9Z" transform="translate(0 43.9)"/></g><g transform="translate(172.101 372.722)"><path class="b" d="M14.337-43.9H43.012c4.76,8.274,9.577,16.548,14.337,24.821C52.589-10.8,47.773-2.531,43.012,5.8H14.337C9.577-2.531,4.76-10.8,0-19.079,4.76-27.352,9.577-35.626,14.337-43.9Z" transform="translate(0 43.9)"/></g><g transform="translate(129.022 497.018)"><path class="b" d="M14.337-43.9H43.012c4.76,8.274,9.577,16.548,14.337,24.821C52.589-10.8,47.773-2.531,43.012,5.8H14.337C9.577-2.531,4.76-10.8,0-19.079,4.76-27.352,9.577-35.626,14.337-43.9Z" transform="translate(0 43.9)"/></g><g transform="translate(129.022 447.257)"><path class="b" d="M14.337-43.9H43.012c4.76,8.274,9.577,16.548,14.337,24.821C52.589-10.8,47.773-2.531,43.012,5.8H14.337C9.577-2.531,4.76-10.8,0-19.079,4.76-27.352,9.577-35.626,14.337-43.9Z" transform="translate(0 43.9)"/></g><g transform="translate(129.022 397.643)"><path class="b" d="M14.337-43.9H43.012c4.76,8.274,9.577,16.548,14.337,24.821C52.589-10.8,47.773-2.531,43.012,5.8H14.337C9.577-2.531,4.76-10.8,0-19.079,4.76-27.352,9.577-35.626,14.337-43.9Z" transform="translate(0 43.9)"/></g><g transform="translate(172.101 323.04)"><path class="b" d="M14.337-43.9H43.012c4.76,8.274,9.577,16.548,14.337,24.821C52.589-10.8,47.773-2.531,43.012,5.8H14.337C9.577-2.531,4.76-10.8,0-19.079,4.76-27.352,9.577-35.626,14.337-43.9Z" transform="translate(0 43.9)"/></g><g transform="translate(172.101 273.279)"><path class="b" d="M14.337-43.9H43.012c4.76,8.274,9.577,16.548,14.337,24.821C52.589-10.8,47.773-2.531,43.012,5.8H14.337C9.577-2.531,4.76-10.8,0-19.079,4.76-27.352,9.577-35.626,14.337-43.9Z" transform="translate(0 43.9)"/></g><g transform="translate(172.101 223.664)"><path class="b" d="M14.337-43.9H43.012c4.76,8.274,9.577,16.548,14.337,24.821C52.589-10.8,47.773-2.531,43.012,5.8H14.337C9.577-2.531,4.76-10.8,0-19.079,4.76-27.352,9.577-35.626,14.337-43.9Z" transform="translate(0 43.9)"/></g><g transform="translate(129.022 347.96)"><path class="b" d="M14.337-43.9H43.012c4.76,8.274,9.577,16.548,14.337,24.821C52.589-10.8,47.773-2.531,43.012,5.8H14.337C9.577-2.531,4.76-10.8,0-19.079,4.76-27.352,9.577-35.626,14.337-43.9Z" transform="translate(0 43.9)"/></g><g transform="translate(129.022 298.199)"><path class="b" d="M14.337-43.9H43.012c4.76,8.274,9.577,16.548,14.337,24.821C52.589-10.8,47.773-2.531,43.012,5.8H14.337C9.577-2.531,4.76-10.8,0-19.079,4.76-27.352,9.577-35.626,14.337-43.9Z" transform="translate(0 43.9)"/></g><g transform="translate(129.022 248.585)"><path class="b" d="M14.337-43.9H43.012c4.76,8.274,9.577,16.548,14.337,24.821C52.589-10.8,47.773-2.531,43.012,5.8H14.337C9.577-2.531,4.76-10.8,0-19.079,4.76-27.352,9.577-35.626,14.337-43.9Z" transform="translate(0 43.9)"/></g><g transform="translate(430.36 472.098)"><path class="b" d="M14.337-43.9H43.012c4.76,8.274,9.577,16.548,14.337,24.821C52.589-10.8,47.773-2.531,43.012,5.8H14.337C9.577-2.531,4.76-10.8,0-19.079,4.76-27.352,9.577-35.626,14.337-43.9Z" transform="translate(0 43.9)"/></g><g transform="translate(430.36 422.337)"><path class="b" d="M14.337-43.9H43.012c4.76,8.274,9.577,16.548,14.337,24.821C52.589-10.8,47.773-2.531,43.012,5.8H14.337C9.577-2.531,4.76-10.8,0-19.079,4.76-27.352,9.577-35.626,14.337-43.9Z" transform="translate(0 43.9)"/></g><g transform="translate(430.36 372.722)"><path class="b" d="M14.337-43.9H43.012c4.76,8.274,9.577,16.548,14.337,24.821C52.589-10.8,47.773-2.531,43.012,5.8H14.337C9.577-2.531,4.76-10.8,0-19.079,4.76-27.352,9.577-35.626,14.337-43.9Z" transform="translate(0 43.9)"/></g><g transform="translate(387.281 497.018)"><path class="b" d="M14.337-43.9H43.012c4.76,8.274,9.577,16.548,14.337,24.821C52.589-10.8,47.773-2.531,43.012,5.8H14.337C9.577-2.531,4.76-10.8,0-19.079,4.76-27.352,9.577-35.626,14.337-43.9Z" transform="translate(0 43.9)"/></g><g transform="translate(387.281 447.257)"><path class="b" d="M14.337-43.9H43.012c4.76,8.274,9.577,16.548,14.337,24.821C52.589-10.8,47.773-2.531,43.012,5.8H14.337C9.577-2.531,4.76-10.8,0-19.079,4.76-27.352,9.577-35.626,14.337-43.9Z" transform="translate(0 43.9)"/></g><g transform="translate(387.281 397.643)"><path class="b" d="M14.337-43.9H43.012c4.76,8.274,9.577,16.548,14.337,24.821C52.589-10.8,47.773-2.531,43.012,5.8H14.337C9.577-2.531,4.76-10.8,0-19.079,4.76-27.352,9.577-35.626,14.337-43.9Z" transform="translate(0 43.9)"/></g><g transform="translate(430.36 323.04)"><path class="b" d="M14.337-43.9H43.012c4.76,8.274,9.577,16.548,14.337,24.821C52.589-10.8,47.773-2.531,43.012,5.8H14.337C9.577-2.531,4.76-10.8,0-19.079,4.76-27.352,9.577-35.626,14.337-43.9Z" transform="translate(0 43.9)"/></g><g transform="translate(430.36 273.279)"><path class="b" d="M14.337-43.9H43.012c4.76,8.274,9.577,16.548,14.337,24.821C52.589-10.8,47.773-2.531,43.012,5.8H14.337C9.577-2.531,4.76-10.8,0-19.079,4.76-27.352,9.577-35.626,14.337-43.9Z" transform="translate(0 43.9)"/></g><g transform="translate(430.36 223.664)"><path class="b" d="M14.337-43.9H43.012c4.76,8.274,9.577,16.548,14.337,24.821C52.589-10.8,47.773-2.531,43.012,5.8H14.337C9.577-2.531,4.76-10.8,0-19.079,4.76-27.352,9.577-35.626,14.337-43.9Z" transform="translate(0 43.9)"/></g><g transform="translate(387.281 347.96)"><path class="b" d="M14.337-43.9H43.012c4.76,8.274,9.577,16.548,14.337,24.821C52.589-10.8,47.773-2.531,43.012,5.8H14.337C9.577-2.531,4.76-10.8,0-19.079,4.76-27.352,9.577-35.626,14.337-43.9Z" transform="translate(0 43.9)"/></g><g transform="translate(387.281 298.199)"><path class="b" d="M14.337-43.9H43.012c4.76,8.274,9.577,16.548,14.337,24.821C52.589-10.8,47.773-2.531,43.012,5.8H14.337C9.577-2.531,4.76-10.8,0-19.079,4.76-27.352,9.577-35.626,14.337-43.9Z" transform="translate(0 43.9)"/></g><g transform="translate(387.281 248.585)"><path class="b" d="M14.337-43.9H43.012c4.76,8.274,9.577,16.548,14.337,24.821C52.589-10.8,47.773-2.531,43.012,5.8H14.337C9.577-2.531,4.76-10.8,0-19.079,4.76-27.352,9.577-35.626,14.337-43.9Z" transform="translate(0 43.9)"/></g><g transform="translate(344.294 472.098)"><path class="b" d="M14.337-43.9H43.012c4.76,8.274,9.577,16.548,14.337,24.821C52.589-10.8,47.773-2.531,43.012,5.8H14.337C9.577-2.531,4.76-10.8,0-19.079,4.76-27.352,9.577-35.626,14.337-43.9Z" transform="translate(0 43.9)"/></g><g transform="translate(344.294 422.337)"><path class="b" d="M14.337-43.9H43.012c4.76,8.274,9.577,16.548,14.337,24.821C52.589-10.8,47.773-2.531,43.012,5.8H14.337C9.577-2.531,4.76-10.8,0-19.079,4.76-27.352,9.577-35.626,14.337-43.9Z" transform="translate(0 43.9)"/></g><g transform="translate(344.294 372.722)"><path class="b" d="M14.337-43.9H43.012c4.76,8.274,9.577,16.548,14.337,24.821C52.589-10.8,47.773-2.531,43.012,5.8H14.337C9.577-2.531,4.76-10.8,0-19.079,4.76-27.352,9.577-35.626,14.337-43.9Z" transform="translate(0 43.9)"/></g><g transform="translate(301.215 497.018)"><path class="b" d="M14.337-43.9H43.012c4.76,8.274,9.577,16.548,14.337,24.821C52.589-10.8,47.773-2.531,43.012,5.8H14.337C9.577-2.531,4.76-10.8,0-19.079,4.76-27.352,9.577-35.626,14.337-43.9Z" transform="translate(0 43.9)"/></g><g transform="translate(301.215 447.257)"><path class="b" d="M14.337-43.9H43.012c4.76,8.274,9.577,16.548,14.337,24.821C52.589-10.8,47.773-2.531,43.012,5.8H14.337C9.577-2.531,4.76-10.8,0-19.079,4.76-27.352,9.577-35.626,14.337-43.9Z" transform="translate(0 43.9)"/></g><g transform="translate(301.215 397.643)"><path class="b" d="M14.337-43.9H43.012c4.76,8.274,9.577,16.548,14.337,24.821C52.589-10.8,47.773-2.531,43.012,5.8H14.337C9.577-2.531,4.76-10.8,0-19.079,4.76-27.352,9.577-35.626,14.337-43.9Z" transform="translate(0 43.9)"/></g><g transform="translate(344.294 323.04)"><path class="b" d="M14.337-43.9H43.012c4.76,8.274,9.577,16.548,14.337,24.821C52.589-10.8,47.773-2.531,43.012,5.8H14.337C9.577-2.531,4.76-10.8,0-19.079,4.76-27.352,9.577-35.626,14.337-43.9Z" transform="translate(0 43.9)"/></g><g transform="translate(344.294 273.279)"><path class="b" d="M14.337-43.9H43.012c4.76,8.274,9.577,16.548,14.337,24.821C52.589-10.8,47.773-2.531,43.012,5.8H14.337C9.577-2.531,4.76-10.8,0-19.079,4.76-27.352,9.577-35.626,14.337-43.9Z" transform="translate(0 43.9)"/></g><g transform="translate(344.294 223.664)"><path class="b" d="M14.337-43.9H43.012c4.76,8.274,9.577,16.548,14.337,24.821C52.589-10.8,47.773-2.531,43.012,5.8H14.337C9.577-2.531,4.76-10.8,0-19.079,4.76-27.352,9.577-35.626,14.337-43.9Z" transform="translate(0 43.9)"/></g><g transform="translate(301.215 347.96)"><path class="b" d="M14.337-43.9H43.012c4.76,8.274,9.577,16.548,14.337,24.821C52.589-10.8,47.773-2.531,43.012,5.8H14.337C9.577-2.531,4.76-10.8,0-19.079,4.76-27.352,9.577-35.626,14.337-43.9Z" transform="translate(0 43.9)"/></g><g transform="translate(301.215 298.199)"><path class="b" d="M14.337-43.9H43.012c4.76,8.274,9.577,16.548,14.337,24.821C52.589-10.8,47.773-2.531,43.012,5.8H14.337C9.577-2.531,4.76-10.8,0-19.079,4.76-27.352,9.577-35.626,14.337-43.9Z" transform="translate(0 43.9)"/></g><g transform="translate(301.215 248.585)"><path class="b" d="M14.337-43.9H43.012c4.76,8.274,9.577,16.548,14.337,24.821C52.589-10.8,47.773-2.531,43.012,5.8H14.337C9.577-2.531,4.76-10.8,0-19.079,4.76-27.352,9.577-35.626,14.337-43.9Z" transform="translate(0 43.9)"/></g></g></g></g></g></svg>