<?xml version="1.0" encoding="UTF-8"?>
<svg width="86px" height="375px" viewBox="0 0 86 375" version="1.1" xmlns="http://www.w3.org/2000/svg" xmlns:xlink="http://www.w3.org/1999/xlink">
    <title>Group 881</title>
    <defs>
        <rect id="path-1" x="0" y="0" width="86" height="375"></rect>
    </defs>
    <g id="hex" stroke="none" stroke-width="1" fill="none" fill-rule="evenodd">
        <g id="Group-881">
            <mask id="mask-2" fill="white">
                <use xlink:href="#path-1"></use>
            </mask>
            <g id="Mask"></g>
            <g mask="url(#mask-2)" stroke="#FFFFFF">
                <g transform="translate(-115.000000, -87.000000)">
                    <path d="M215.782,174.3979 L187.107,174.3979 C182.347,182.6719 177.53,190.9459 172.77,199.2189 C177.53,207.4979 182.347,215.7669 187.107,224.0979 L215.782,224.0979 C220.542,215.8239 225.359,207.5499 230.119,199.2199 C225.359,190.9459 220.58,182.6719 215.782,174.3979 Z" id="Stroke-107"></path>
                    <path d="M215.782,124.6372 L187.107,124.6372 C182.347,132.9112 177.53,141.1852 172.77,149.4582 C177.53,157.7372 182.347,166.0062 187.107,174.3372 L215.782,174.3372 C220.542,166.0632 225.359,157.7892 230.119,149.4592 C225.359,141.1852 220.58,132.9112 215.782,124.6372 Z" id="Stroke-111"></path>
                    <path d="M215.782,75.022 L187.107,75.022 C182.347,83.296 177.53,91.57 172.77,99.843 C177.53,108.122 182.347,116.391 187.107,124.722 L215.782,124.722 C220.542,116.448 225.359,108.174 230.119,99.844 C225.359,91.57 220.58,83.296 215.782,75.022 Z" id="Stroke-115"></path>
                    <path d="M129.6536,174.3979 L100.9786,174.3979 C96.2186,182.6719 91.4016,190.9459 86.6416,199.2189 C91.4016,207.4979 96.2186,215.7669 100.9786,224.0979 L129.6536,224.0979 C134.4136,215.8239 139.2306,207.5499 143.9906,199.2199 C139.2306,190.9459 134.4516,182.6719 129.6536,174.3979 Z" id="Stroke-215"></path>
                    <path d="M129.6536,124.6372 L100.9786,124.6372 C96.2186,132.9112 91.4016,141.1852 86.6416,149.4582 C91.4016,157.7372 96.2186,166.0062 100.9786,174.3372 L129.6536,174.3372 C134.4136,166.0632 139.2306,157.7892 143.9906,149.4592 C139.2306,141.1852 134.4516,132.9112 129.6536,124.6372 Z" id="Stroke-219"></path>
                    <path d="M129.6536,75.022 L100.9786,75.022 C96.2186,83.296 91.4016,91.57 86.6416,99.843 C91.4016,108.122 96.2186,116.391 100.9786,124.722 L129.6536,124.722 C134.4136,116.448 139.2306,108.174 143.9906,99.844 C139.2306,91.57 134.4516,83.296 129.6536,75.022 Z" id="Stroke-223"></path>
                    <path d="M172.7337,199.3188 L144.0587,199.3188 C139.2987,207.5928 134.4817,215.8668 129.7217,224.1398 C134.4817,232.4188 139.2987,240.6878 144.0587,249.0188 L172.7337,249.0188 C177.4937,240.7448 182.3107,232.4708 187.0707,224.1408 C182.3107,215.8668 177.5317,207.5928 172.7337,199.3188 Z" id="Stroke-227"></path>
                    <path d="M172.7337,149.5571 L144.0587,149.5571 C139.2987,157.8311 134.4817,166.1051 129.7217,174.3781 C134.4817,182.6571 139.2987,190.9261 144.0587,199.2571 L172.7337,199.2571 C177.4937,190.9831 182.3107,182.7091 187.0707,174.3791 C182.3107,166.1051 177.5317,157.8311 172.7337,149.5571 Z" id="Stroke-231"></path>
                    <path d="M172.7337,99.9429 L144.0587,99.9429 C139.2987,108.2169 134.4817,116.4909 129.7217,124.7639 C134.4817,133.0429 139.2987,141.3119 144.0587,149.6429 L172.7337,149.6429 C177.4937,141.3689 182.3107,133.0949 187.0707,124.7649 C182.3107,116.4909 177.5317,108.2169 172.7337,99.9429 Z" id="Stroke-235"></path>
                    <path d="M172.7337,50.2612 L144.0587,50.2612 C139.2987,58.5352 134.4817,66.8092 129.7217,75.0822 C134.4817,83.3612 139.2987,91.6302 144.0587,99.9612 L172.7337,99.9612 C177.4937,91.6872 182.3107,83.4132 187.0707,75.0832 C182.3107,66.8092 177.5317,58.5352 172.7337,50.2612 Z" id="Stroke-243"></path>
                    <path d="M215.782,422.8369 L187.107,422.8369 C182.347,431.1109 177.53,439.3849 172.77,447.6579 C177.53,455.9369 182.347,464.2059 187.107,472.5369 L215.782,472.5369 C220.542,464.2629 225.359,455.9889 230.119,447.6589 C225.359,439.3849 220.58,431.1109 215.782,422.8369 Z" id="Stroke-255"></path>
                    <path d="M215.782,373.2217 L187.107,373.2217 C182.347,381.4957 177.53,389.7697 172.77,398.0427 C177.53,406.3227 182.347,414.5907 187.107,422.9217 L215.782,422.9217 C220.542,414.6487 225.359,406.3737 230.119,398.0437 C225.359,389.7697 220.58,381.4957 215.782,373.2217 Z" id="Stroke-259"></path>
                    <path d="M215.782,323.54 L187.107,323.54 C182.347,331.814 177.53,340.088 172.77,348.361 C177.53,356.64 182.347,364.909 187.107,373.24 L215.782,373.24 C220.542,364.966 225.359,356.692 230.119,348.362 C225.359,340.088 220.58,331.814 215.782,323.54 Z" id="Stroke-275"></path>
                    <path d="M215.782,273.7788 L187.107,273.7788 C182.347,282.0528 177.53,290.3268 172.77,298.5998 C177.53,306.8788 182.347,315.1488 187.107,323.4788 L215.782,323.4788 C220.542,315.2048 225.359,306.9308 230.119,298.6008 C225.359,290.3268 220.58,282.0528 215.782,273.7788 Z" id="Stroke-279"></path>
                    <path d="M215.782,224.164 L187.107,224.164 C182.347,232.438 177.53,240.712 172.77,248.985 C177.53,257.264 182.347,265.533 187.107,273.864 L215.782,273.864 C220.542,265.59 225.359,257.316 230.119,248.986 C225.359,240.712 220.58,232.438 215.782,224.164 Z" id="Stroke-283"></path>
                    <path d="M129.6536,422.8369 L100.9786,422.8369 C96.2186,431.1109 91.4016,439.3849 86.6416,447.6579 C91.4016,455.9369 96.2186,464.2059 100.9786,472.5369 L129.6536,472.5369 C134.4136,464.2629 139.2306,455.9889 143.9906,447.6589 C139.2306,439.3849 134.4516,431.1109 129.6536,422.8369 Z" id="Stroke-399"></path>
                    <path d="M129.6536,373.2217 L100.9786,373.2217 C96.2186,381.4957 91.4016,389.7697 86.6416,398.0427 C91.4016,406.3227 96.2186,414.5907 100.9786,422.9217 L129.6536,422.9217 C134.4136,414.6487 139.2306,406.3737 143.9906,398.0437 C139.2306,389.7697 134.4516,381.4957 129.6536,373.2217 Z" id="Stroke-403"></path>
                    <path d="M172.7337,447.7568 L144.0587,447.7568 C139.2987,456.0308 134.4817,464.3048 129.7217,472.5778 C134.4817,480.8578 139.2987,489.1258 144.0587,497.4568 L172.7337,497.4568 C177.4937,489.1828 182.3107,480.9088 187.0707,472.5788 C182.3107,464.3048 177.5317,456.0308 172.7337,447.7568 Z" id="Stroke-411"></path>
                    <path d="M172.7337,398.1426 L144.0587,398.1426 C139.2987,406.4166 134.4817,414.6916 129.7217,422.9636 C134.4817,431.2436 139.2987,439.5116 144.0587,447.8426 L172.7337,447.8426 C177.4937,439.5696 182.3107,431.2946 187.0707,422.9646 C182.3107,414.6916 177.5317,406.4166 172.7337,398.1426 Z" id="Stroke-415"></path>
                    <path d="M129.6536,323.54 L100.9786,323.54 C96.2186,331.814 91.4016,340.088 86.6416,348.361 C91.4016,356.64 96.2186,364.909 100.9786,373.24 L129.6536,373.24 C134.4136,364.966 139.2306,356.692 143.9906,348.362 C139.2306,340.088 134.4516,331.814 129.6536,323.54 Z" id="Stroke-419"></path>
                    <path d="M129.6536,273.7788 L100.9786,273.7788 C96.2186,282.0528 91.4016,290.3268 86.6416,298.5998 C91.4016,306.8788 96.2186,315.1488 100.9786,323.4788 L129.6536,323.4788 C134.4136,315.2048 139.2306,306.9308 143.9906,298.6008 C139.2306,290.3268 134.4516,282.0528 129.6536,273.7788 Z" id="Stroke-423"></path>
                    <path d="M129.6536,224.164 L100.9786,224.164 C96.2186,232.438 91.4016,240.712 86.6416,248.985 C91.4016,257.264 96.2186,265.533 100.9786,273.864 L129.6536,273.864 C134.4136,265.59 139.2306,257.316 143.9906,248.986 C139.2306,240.712 134.4516,232.438 129.6536,224.164 Z" id="Stroke-427"></path>
                    <path d="M172.7337,348.46 L144.0587,348.46 C139.2987,356.734 134.4817,365.008 129.7217,373.281 C134.4817,381.56 139.2987,389.829 144.0587,398.16 L172.7337,398.16 C177.4937,389.886 182.3107,381.612 187.0707,373.282 C182.3107,365.008 177.5317,356.734 172.7337,348.46 Z" id="Stroke-431"></path>
                    <path d="M172.7337,298.7002 L144.0587,298.7002 C139.2987,306.9732 134.4817,315.2482 129.7217,323.5212 C134.4817,331.8002 139.2987,340.0692 144.0587,348.4002 L172.7337,348.4002 C177.4937,340.1262 182.3107,331.8512 187.0707,323.5222 C182.3107,315.2482 177.5317,306.9732 172.7337,298.7002 Z" id="Stroke-435"></path>
                    <path d="M172.7337,249.0859 L144.0587,249.0859 C139.2987,257.3599 134.4817,265.6339 129.7217,273.9069 C134.4817,282.1859 139.2987,290.4549 144.0587,298.7859 L172.7337,298.7859 C177.4937,290.5119 182.3107,282.2379 187.0707,273.9079 C182.3107,265.6339 177.5317,257.3599 172.7337,249.0859 Z" id="Stroke-439"></path>
                </g>
            </g>
        </g>
    </g>
</svg>