<svg xmlns="http://www.w3.org/2000/svg" width="52.233" height="43.164" viewBox="0 0 52.233 43.164"><defs><style>.a{opacity:0.4;}.b,.c{fill:#1a1818;fill-rule:evenodd;}.b{stroke:#fff;stroke-miterlimit:2.613;}</style></defs><g class="a" transform="translate(0.5)"><path class="b" d="M362.936,447.676l-7.7-9.257-.054.031v9.226h-3.92V436.537h6.217l7.434,8.763.054-.031v-8.732h3.92v11.139Z" transform="translate(-351.258 -413.612)"/><path class="c" d="M409.575,447.651V436.512H416.9c3.487-.123,7.055.71,7.055,2.885,0,1.219-1.487,2.067-3.433,2.438v.031c2.46.293,4.3,1.265,4.3,2.9,0,2.206-4.866,3.008-7.867,2.885Zm7.461-1.851c1.973,0,3.325-.2,3.325-1.481s-1.352-1.481-3.325-1.481h-3.271V445.8Zm0-4.814c1.757,0,2.73-.416,2.73-1.311s-.973-1.311-2.73-1.311h-3.271v2.623Z" transform="translate(-390.748 -413.588)"/><path class="c" d="M468.913,439.662c.027-1.173-1.216-2.114-3.73-2.114-2.974,0-3.73,2.515-3.73,4.073s.757,4.073,3.73,4.073c2.514,0,3.758-.941,3.73-2.114h4.46c-.189,2.792-3.7,3.842-8.191,3.842-5.65,0-8.191-2.546-8.191-5.8s2.541-5.8,8.191-5.8c4.488,0,8,1.049,8.191,3.842Z" transform="translate(-422.856 -413.127)"/><path class="c" d="M351.78,377.032v-11.5h6.575l2.447,7.791h.041l2.364-7.791h6.45v11.5h-3.63v-9.624l-.041-.032-3.505,9.655h-3.733l-3.3-9.735-.042.032v9.7Z" transform="translate(-351.612 -365.529)"/><path class="c" d="M363.949,406.512c.027-.386-.221-.676-.718-.882a5.551,5.551,0,0,0-2.125-.317c-1.27,0-2.374.414-2.374.91,0,.731,1.767.965,3.229,1.158,3.34.427,8.2.593,8.2,3.281,0,2.095-4.14,3.087-8.75,3.087-4.637,0-8.722-.675-8.805-3.377h5.521c-.028.937,1.352,1.447,3.34,1.447,1.27,0,2.9-.331,2.9-.992,0-1.351-4.085-1.062-8.419-2.012-2.015-.441-3.009-1.351-3.009-2.426.221-2.357,4.361-3,8.529-3,4.113,0,8.336.731,8,3.129Z" transform="translate(-352.169 -391.162)"/><path class="c" d="M422.838,384.574l4.873,11.129-10.052-6.875a3.631,3.631,0,0,1-.613-5.786,3.549,3.549,0,0,1,5.793,1.532Z" transform="translate(-395.019 -376.752)"/><path class="c" d="M443.254,372.533l-1.772,12.457-5.043-11.844a3.583,3.583,0,1,1,6.815-.613Z" transform="translate(-408.756 -367.332)"/><path class="c" d="M467.419,373.059l-5.009,11.878-1.6-10.721c-.137-1.634.886-1.668,1.261-1.974-.068-.238-.58-.238-.58-.238h-.954a3.552,3.552,0,0,1,3.851-3.88,3.613,3.613,0,0,1,3.033,4.935Z" transform="translate(-425.254 -367.279)"/><path class="c" d="M476.611,388.822l-10.052,6.909,4.737-10.993c1.431-3.471,4.771-2.791,5.963-1.463a3.577,3.577,0,0,1-.647,5.547Z" transform="translate(-429.335 -376.814)"/><path class="c" d="M476.6,412.776h-11.62l9.439-6.569a3.591,3.591,0,1,1,2.181,6.569Z" transform="translate(-428.263 -392.634)"/><path class="c" d="M407.418,407.872a3.578,3.578,0,0,1,5.52-1.736l9.439,6.569h-11.45a3.668,3.668,0,0,1-3.51-4.833Z" transform="translate(-389.174 -392.563)"/><path class="c" d="M367.515,489.849v-3c0-.476-.15-.643-.5-.643a1.435,1.435,0,0,0-.978.568v3.071h-.752V486.87c0-.467-.134-.643-.518-.643a1.439,1.439,0,0,0-.961.484v3.138h-.76v-3.071a2.27,2.27,0,0,0-.15-1.043l.719-.175a1.182,1.182,0,0,1,.142.584,1.71,1.71,0,0,1,1.178-.592,1.081,1.081,0,0,1,.994.659,1.8,1.8,0,0,1,1.278-.659,1.029,1.029,0,0,1,1.07,1.177v3.122Z" transform="translate(-359.137 -446.803)"/><path class="c" d="M385.6,489.844a3.191,3.191,0,0,1-1.563-.442l.276-.551a2.857,2.857,0,0,0,1.345.417.693.693,0,0,0,.777-.676c0-.359-.217-.568-.7-.659l-.51-.1a1.122,1.122,0,0,1-1.02-1.16,1.35,1.35,0,0,1,1.513-1.3,2.666,2.666,0,0,1,1.32.342l-.259.542a2.269,2.269,0,0,0-1.028-.3.641.641,0,0,0-.727.626c0,.3.15.467.593.568l.543.125c.769.175,1.086.618,1.086,1.169a1.462,1.462,0,0,1-1.646,1.4Z" transform="translate(-373.458 -446.68)"/><path class="c" d="M400.767,489.832v-2.821c0-.375-.033-.509-.134-.643a.519.519,0,0,0-.426-.167,1.691,1.691,0,0,0-1.036.534v3.1h-.76v-3.113a2.28,2.28,0,0,0-.159-.993l.727-.2a1.323,1.323,0,0,1,.142.643,3.819,3.819,0,0,1,.543-.409,1.555,1.555,0,0,1,.777-.209,1.047,1.047,0,0,1,.986.592,1.313,1.313,0,0,1,.1.526v3.163Z" transform="translate(-383.08 -446.785)"/><path class="c" d="M416.446,483.8a2.416,2.416,0,0,1-.234,1.227.8.8,0,0,1-.7.375,1.241,1.241,0,0,1-.9-.442v-2.12a.943.943,0,0,1,.259-.259,1.038,1.038,0,0,1,.66-.225.806.806,0,0,1,.744.434,1.8,1.8,0,0,1,.175,1.01Zm.869.016c0-1.319-.618-2.128-1.613-2.128a1.435,1.435,0,0,0-1.095.467l-.025-.017a2.521,2.521,0,0,0,.025-.434v-.968a4.3,4.3,0,0,0-.083-.9L413.7,480a2.931,2.931,0,0,1,.134,1v4a2.7,2.7,0,0,1-.109.977h.727a1.486,1.486,0,0,0,.125-.467,1.343,1.343,0,0,0,1.078.551,1.369,1.369,0,0,0,.9-.317,2.383,2.383,0,0,0,.752-1.928Z" transform="translate(-393.544 -442.933)"/><path class="c" d="M430.646,489.88a1.535,1.535,0,0,1-1.346-.626,2.526,2.526,0,0,1-.4-1.511,2.291,2.291,0,0,1,.7-1.845,1.64,1.64,0,0,1,2.223.017l-.4.526a1.021,1.021,0,0,0-.735-.325.806.806,0,0,0-.735.451,2.966,2.966,0,0,0-.2,1.277,1.722,1.722,0,0,0,.334,1.2.812.812,0,0,0,.6.251,1.172,1.172,0,0,0,.869-.434l.376.475a1.648,1.648,0,0,1-1.287.543Z" transform="translate(-403.833 -446.75)"/><path class="c" d="M443.39,495.975a.594.594,0,1,1-.593-.626.6.6,0,0,1,.593.626Z" transform="translate(-412.842 -453.437)"/><path class="c" d="M452,489.88a1.535,1.535,0,0,1-1.345-.626,2.526,2.526,0,0,1-.4-1.511,2.29,2.29,0,0,1,.7-1.845,1.639,1.639,0,0,1,2.223.017l-.4.526a1.022,1.022,0,0,0-.735-.325.806.806,0,0,0-.735.451,2.966,2.966,0,0,0-.2,1.277,1.722,1.722,0,0,0,.334,1.2.812.812,0,0,0,.6.251,1.172,1.172,0,0,0,.869-.434l.376.475a1.65,1.65,0,0,1-1.287.543Z" transform="translate(-418.294 -446.75)"/><path class="c" d="M465.918,487.83c0,1.093-.359,1.544-.944,1.544-.652,0-.978-.426-.978-1.7,0-1.052.276-1.528.944-1.528.6,0,.978.392.978,1.686Zm.861-.033c0-1.261-.6-2.245-1.839-2.245-1.1,0-1.8.851-1.8,2.2s.693,2.212,1.813,2.212,1.822-.843,1.822-2.17Z" transform="translate(-427.022 -446.803)"/><path class="c" d="M483.606,489.849v-3c0-.476-.15-.643-.5-.643a1.437,1.437,0,0,0-.978.568v3.071h-.752V486.87c0-.467-.134-.643-.518-.643a1.439,1.439,0,0,0-.961.484v3.138h-.76v-3.071a2.274,2.274,0,0,0-.15-1.043l.719-.175a1.182,1.182,0,0,1,.142.584,1.71,1.71,0,0,1,1.178-.592,1.081,1.081,0,0,1,.994.659,1.8,1.8,0,0,1,1.278-.659,1.029,1.029,0,0,1,1.07,1.177v3.122Z" transform="translate(-437.749 -446.803)"/></g></svg>