<svg xmlns="http://www.w3.org/2000/svg" width="46.029" height="45.336" viewBox="0 0 46.029 45.336"><defs><style>.a{opacity:0.4;}.b{fill:#1a1818;fill-rule:evenodd;}</style></defs><g class="a"><path class="b" d="M342.68,416.267a4.84,4.84,0,1,1,2.648-8.893h0l13.2,8.893Z" transform="translate(-337.835 -390.265)"/><path class="b" d="M356.215,374.408a4.838,4.838,0,1,1,7.062-6.015h0l6.746,15.376-13.807-9.362Z" transform="translate(-350.031 -359.296)"/><path class="b" d="M456.505,416.258a4.844,4.844,0,1,0-2.654-8.9h0l-13.23,8.9Z" transform="translate(-415.332 -390.251)"/><path class="b" d="M457.335,374.381a4.844,4.844,0,1,0-7.077-6.02h0l-6.76,15.391,13.838-9.37Z" transform="translate(-417.501 -359.269)"/><path class="b" d="M434.549,346.25a1.724,1.724,0,0,0-1.088,2.1h0l2.048,14.323,6.83-15.613h0a4.858,4.858,0,1,0-9.27-1.422h0l1.287,0h0c.73.036,1.114.23.192.613Z" transform="translate(-409.615 -340.243)"/><path class="b" d="M390.564,347.1a4.849,4.849,0,1,1,9.22-1.2h0l-2.4,16.8-6.816-15.6Z" transform="translate(-377.274 -340.273)"/><path class="b" d="M475.685,471.937a8.609,8.609,0,0,1-3.032.643,8.485,8.485,0,1,1,0-16.945,7.8,7.8,0,0,1,3.032.627h0v3.24h0a5.507,5.507,0,1,0,0,9.222h0v3.214Z" transform="translate(-432.737 -427.245)"/><path class="b" d="M360.573,456.81h3.285V473l-10.112-9.235v8.881h-3.285V456.46l10.112,9.235V456.81Z" transform="translate(-347.355 -427.866)"/><path class="b" d="M421.7,465.208a3.62,3.62,0,0,0,1.868-3.322c-.011-2.461-2-4.066-4.472-4.066h-6.518v15.866h7.311a4.465,4.465,0,0,0,4.56-4.545,4.274,4.274,0,0,0-2.748-3.932Zm-5.82-4.99h2.442a2.063,2.063,0,1,1,0,4.126h-2.442v-4.126Zm2.973,11.085h-2.972v-4.589l2.972-.013h0a2.3,2.3,0,1,1,0,4.6Z" transform="translate(-394.185 -428.892)"/></g></svg>